<?xml version="1.0" encoding="UTF-8" standalone="no"?>
<!-- Created with Inkscape (http://www.inkscape.org/) -->

<svg
   width="123.9853mm"
   height="1279.2578mm"
   viewBox="0 0 123.9853 1279.2578"
   version="1.1"
   id="svg5"
   xmlns:xlink="http://www.w3.org/1999/xlink"
   xmlns="http://www.w3.org/2000/svg"
   xmlns:svg="http://www.w3.org/2000/svg">
  <defs
     id="defs2">
    <style
       id="style9">.cls-1{fill:#fff;}.cls-2{fill:#f89191;}.cls-3{fill:#1d745e;}</style>
    <clipPath
       clipPathUnits="userSpaceOnUse"
       id="clipPath61">
      <use
         x="0"
         y="0"
         xlink:href="#g57"
         id="use63"
         width="100%"
         height="100%" />
    </clipPath>
  </defs>
  <g
     id="layer1">
    <g
       id="g57">
      <g
         id="Vrstva_7"
         data-name="Vrstva 7"
         transform="matrix(0.26458333,0,0,0.26458333,-152.02007,-94.233952)">
        <path
           class="cls-1"
           d="m 792,374.37 c -0.77,3.54 -1.91,9.07 -3.09,15.86 -2.49,14.43 -4,28.25 -8,65.58 -0.4,3.75 -2.17,20.4 -10,33.47 a 28.7,28.7 0 0 1 -6.65,8 c -6.53,5.31 -10.68,3.43 -17.19,7.06 -8,4.49 -14.14,14.3 -13.95,24.09 a 25.54,25.54 0 0 0 4,12.91 c 7.33,12.19 21.17,15 24.21,15.51 0.9,0.16 10.21,1.87 14,10.21 a 17.35,17.35 0 0 1 1.18,10.05 l -34.89,222 A 63.13,63.13 0 0 1 738,813.88 c -7.52,20.09 -21.44,24.91 -28.79,39.9 -3.44,7 -6.58,18.64 -2.12,37.1 0,0 5.87,16.08 -6.64,43.15 0,0 -32.43,69.7 -28.34,95.74 a 17.5,17.5 0 0 1 0.11,7.27 c -0.25,1.27 -1.25,5.47 -7.26,11.5 -4.12,4.13 -7,5.47 -9,7.15 -4.13,3.33 -8.27,10.46 -7.13,27.44 a 35.37,35.37 0 0 1 -0.19,13.6 c -1.83,8.5 -6.59,14.44 -12.06,21.13 -5.11,6.22 -6,5.74 -8.3,9 -4.06,5.66 -6.82,14.63 -3.45,32.87 2.7,14.62 6.81,21.52 17.25,44.62 12.83,28.4 20.6,48.9 31.6,62.61 4.32,5.39 9.83,11.81 9.83,11.81 2.06,2.4 6.63,7.68 12.89,14.49 10,10.8 8.9,8.86 11,11.68 7.55,9.91 10.51,20.73 13,29.68 1.81,6.58 1.37,7.1 3.13,12.13 a 62.91,62.91 0 0 0 9.64,18.25 c 5.69,7.19 10.35,8.79 14.81,12.61 10,8.56 11.45,21.83 13.28,38.46 4,36.83 -7.92,53.92 3.32,67.66 1.9,2.32 6.12,6.57 9,14 a 43.21,43.21 0 0 1 2.78,17.23 c 0,0 -5.09,17 3,28.39 2.59,9.48 4.67,23.25 -0.34,37.44 -3.89,11 -8.34,11.75 -18.49,27.17 -7.2,11 -19.28,29.31 -21.17,53.34 -0.92,11.76 0.81,22.1 2.39,31.49 2.3,13.76 4.09,14.25 6.83,28.35 1.76,9 4.69,24.14 3.38,42.63 -1.37,19.24 -5.8,20.64 -3.75,31.66 2.44,13.07 9.32,14.64 18.73,31.17 2.93,5.15 14.09,25.8 13.79,49.51 -0.26,20.19 -8.53,19.47 -10.65,39.72 -1.54,14.77 2.7,16.72 15.92,72.11 5.06,21.19 6.36,28.94 3.24,38.47 -4.08,12.44 -11.46,15 -11.66,26.38 -0.2,11 6.57,13.18 7.91,27.9 a 55.53,55.53 0 0 1 -2.75,22.2 c -5,16 -12.76,18 -18.44,29.31 -14.42,28.65 7.89,71.24 11.25,77.64 3.36,6.4 7.67,13.09 11.22,24.74 a 103.28,103.28 0 0 1 4.52,29.84 q 0,162 0.1,324 c 0.18,19 -0.49,34.83 -1.2,46.28 -2.17,35 -3.26,52.51 -10.25,70.08 -9.39,23.57 -17.66,23.5 -17.77,37.86 -0.16,21 17.46,27.56 19.93,50.89 1.78,16.82 -5.6,30.24 -10.69,39.5 -19.92,36.24 -52.4,40.48 -85.15,63.62 -69.37,49 -82.41,142.1 -85.16,161.73 -3,21.7 -1.48,43.51 1.62,87.14 a 1314.92,1314.92 0 0 0 18,142.81 c 1.33,3.77 3.85,10.52 7.65,18.61 29.21,62.22 81.13,90.56 127.28,152.41 6.51,8.72 18.41,25.49 14.74,43.67 -2,9.75 -7.17,13.74 -11.41,21.28 -14,24.89 4.1,50.13 5.49,74.3 0.86,14.9 -4.64,28.95 -101.9,124.94 -10.28,10.14 -74.74,73.65 -71.2,107.27 a 77.87,77.87 0 0 0 5.33,20.32 70.88,70.88 0 0 0 21,27 c 12,9.36 17.68,5.89 33.18,14.78 5.08,2.91 28.15,16.15 34.31,39.76 2.06,7.9 0.45,10.13 1.22,19 2.25,25.68 18.92,42.21 27.27,53.47 8.15,11 5.9,13.63 18.9,90 6.06,35.64 17.85,101.42 17.6,141.13 a 168,168 0 0 1 -1.51,23 c -1.22,9 -3,16.44 -9.52,39.34 -7.24,25.41 -6.61,21.67 -7.67,26.42 -2.87,12.76 -6.8,31.05 -2.68,50.95 2.77,13.39 7,17.08 10.88,27.41 9.76,26.2 0.58,51.36 -5.77,72.33 -15.63,51.6 -39.9,131.72 -11,182.84 4.34,7.68 9.85,14.64 16.47,29.76 11.08,25.29 15.25,50.47 13.41,67.05 -0.11,0.94 -0.61,5.15 -1.61,13.56 -2.22,18.68 -2.47,20.35 -2.65,22.29 -1.37,14.31 2.07,26.37 4.76,35.82 6.17,21.64 14.94,30.72 23.48,46.68 13.54,25.34 15.81,58.72 20.34,125.49 a 127.7,127.7 0 0 1 -0.46,26.72 c -0.6,4.62 -1.73,11.15 -10.38,38.87 -7.24,23.18 -8.21,24.25 -8.47,30.5 -0.54,13.23 3.14,25.12 5.21,31.61 2.69,8.44 4.78,11.72 7.23,17.74 3.84,9.42 7.76,23.55 7.24,43.41 h 6.62 l 0.26,-4829.95 c 0,0 -8.15,0.77 -12.36,16.26 z"
           id="path13" />
        <path
           class="cls-1"
           d="m 946.22,3723.61 c -97.26,-96 -102.76,-110 -101.9,-124.94 1.39,-24.17 19.46,-49.41 5.49,-74.3 -4.24,-7.54 -9.44,-11.53 -11.41,-21.28 -3.67,-18.18 8.23,-35 14.74,-43.67 46.15,-61.85 98.07,-90.19 127.28,-152.41 3.8,-8.09 6.32,-14.84 7.65,-18.61 a 1314.92,1314.92 0 0 0 18,-142.81 c 3.1,-43.63 4.66,-65.44 1.62,-87.14 -2.75,-19.63 -15.79,-112.72 -85.16,-161.73 -32.75,-23.14 -65.23,-27.38 -85.15,-63.62 -5.09,-9.26 -12.47,-22.68 -10.69,-39.5 2.47,-23.33 20.09,-29.91 19.93,-50.89 -0.11,-14.36 -8.38,-14.29 -17.77,-37.86 -7,-17.57 -8.07,-35.07 -10.25,-70.08 -0.71,-11.45 -1.38,-27.27 -1.2,-46.28 q 0.06,-162 0.1,-324 a 103.28,103.28 0 0 1 4.52,-29.84 c 3.55,-11.65 7.83,-18.25 11.22,-24.74 3.39,-6.49 25.67,-49 11.25,-77.64 C 838.79,2121 831,2118.9 826,2102.93 a 55.53,55.53 0 0 1 -2.75,-22.2 c 1.34,-14.72 8.11,-16.91 7.91,-27.9 -0.2,-11.39 -7.58,-13.94 -11.66,-26.38 -3.12,-9.53 -1.82,-17.28 3.24,-38.47 13.22,-55.39 17.46,-57.34 15.92,-72.11 -2.12,-20.25 -10.39,-19.53 -10.65,-39.72 -0.3,-23.71 10.86,-44.36 13.79,-49.51 9.41,-16.53 16.29,-18.1 18.73,-31.17 2.05,-11 -2.38,-12.42 -3.75,-31.66 -1.31,-18.49 1.62,-33.58 3.38,-42.63 2.74,-14.1 4.53,-14.59 6.83,-28.35 1.58,-9.39 3.31,-19.73 2.39,-31.49 -1.89,-24 -14,-42.39 -21.17,-53.34 -10.15,-15.42 -14.6,-16.14 -18.49,-27.17 -5,-14.19 -2.93,-28 -0.34,-37.44 8.09,-11.37 3,-28.39 3,-28.39 a 43.21,43.21 0 0 1 2.78,-17.23 c 2.9,-7.47 7.12,-11.72 9,-14 11.24,-13.74 -0.73,-30.83 3.32,-67.66 1.83,-16.63 3.29,-29.9 13.28,-38.46 4.46,-3.82 9.12,-5.42 14.81,-12.61 a 62.91,62.91 0 0 0 9.64,-18.25 c 1.76,-5 1.33,-5.55 3.13,-12.13 2.44,-8.95 5.4,-19.77 13,-29.68 2.16,-2.82 1.1,-0.88 11,-11.68 6.26,-6.81 10.83,-12.09 12.89,-14.49 0,0 5.51,-6.42 9.83,-11.81 11,-13.71 18.77,-34.21 31.6,-62.61 10.44,-23.1 14.55,-30 17.25,-44.62 3.37,-18.24 0.61,-27.21 -3.45,-32.87 -2.33,-3.26 -3.19,-2.78 -8.3,-9 -5.47,-6.69 -10.22,-12.63 -12.06,-21.13 a 35.57,35.57 0 0 1 -0.19,-13.6 c 1.14,-17 -3,-24.11 -7.13,-27.44 -2.08,-1.68 -4.92,-3 -9,-7.15 -6,-6 -7,-10.23 -7.26,-11.5 a 17.5,17.5 0 0 1 0.11,-7.27 c 4.09,-26 -28.34,-95.74 -28.34,-95.74 -12.51,-27.07 -6.64,-43.15 -6.64,-43.15 4.46,-18.46 1.32,-30.06 -2.12,-37.1 -7.35,-15 -21.27,-19.81 -28.79,-39.9 a 63.13,63.13 0 0 1 -3.56,-14.83 l -34.89,-222 A 17.35,17.35 0 0 1 833.48,567 c 3.76,-8.34 13.07,-10 14,-10.21 3,-0.53 16.88,-3.32 24.21,-15.51 a 25.54,25.54 0 0 0 4,-12.91 c 0.19,-9.79 -5.92,-19.6 -14,-24.09 -6.51,-3.63 -10.66,-1.75 -17.19,-7.06 a 28.7,28.7 0 0 1 -6.65,-8 c -7.82,-13.07 -9.59,-29.72 -10,-33.47 -4,-37.33 -5.53,-51.15 -8,-65.58 -1.18,-6.79 -2.32,-12.32 -3.09,-15.86 -4.25,-15.49 -12.42,-16.17 -12.42,-16.17 l 0.25,4830 h 6.62 c -0.52,-19.86 3.4,-34 7.24,-43.41 2.45,-6 4.54,-9.3 7.23,-17.74 2.07,-6.49 5.75,-18.38 5.21,-31.61 -0.26,-6.25 -1.23,-7.32 -8.47,-30.5 -8.65,-27.72 -9.78,-34.25 -10.38,-38.87 a 127.7,127.7 0 0 1 -0.46,-26.72 c 4.53,-66.77 6.8,-100.15 20.34,-125.49 8.54,-16 17.31,-25 23.48,-46.68 2.69,-9.45 6.13,-21.51 4.76,-35.82 -0.18,-1.94 -0.43,-3.61 -2.65,-22.29 -1,-8.41 -1.5,-12.62 -1.61,-13.56 -1.84,-16.58 2.33,-41.76 13.41,-67.05 6.62,-15.12 12.13,-22.08 16.47,-29.76 28.92,-51.12 4.65,-131.24 -11,-182.84 -6.35,-21 -15.53,-46.13 -5.77,-72.33 3.85,-10.33 8.11,-14 10.88,-27.41 4.12,-19.9 0.19,-38.19 -2.67,-50.95 -1.07,-4.75 -0.44,-1 -7.68,-26.42 -6.52,-22.9 -8.3,-30.36 -9.52,-39.34 a 169.6,169.6 0 0 1 -1.51,-23 c -0.25,-39.71 11.54,-105.49 17.6,-141.13 13,-76.37 10.75,-79 18.9,-90 8.35,-11.26 25,-27.79 27.27,-53.47 0.77,-8.84 -0.84,-11.07 1.22,-19 6.16,-23.61 29.23,-36.85 34.31,-39.76 15.5,-8.89 21.15,-5.42 33.18,-14.78 a 70.88,70.88 0 0 0 21,-27 77.87,77.87 0 0 0 5.33,-20.32 c 3.68,-33.63 -60.82,-97.14 -71.1,-107.28 z"
           id="path15" />
        <path
           class="cls-1"
           d="m 793.25,375.49 a 93.76,93.76 0 0 0 -3.09,15.86 c -0.68,5.35 -1.22,9.2 -1.67,12.19 -1,6.58 -1.67,11.32 -1.79,12.08 -4.22,27.48 1.53,63.58 1.53,63.58 3.11,19.56 2,51.61 -0.13,115.72 -2,59.34 -3.9,115.81 -15.19,158 a 211.84,211.84 0 0 0 -6.3,31.32 c -0.59,4.82 -3,25.53 -0.17,55.32 1.92,20.54 3.74,18.12 4.17,31.57 0.17,5.45 0.31,19.61 -6.65,50.81 -7.38,33.05 -10,28 -11,41.11 -2.21,28.46 11.19,35 9.28,66.11 -0.67,10.87 -2.86,18.38 -7.25,33.39 -9,30.79 -17.48,38.86 -24,59.11 -5,15.72 -4.58,32.75 -3.68,66.83 1.56,58.73 9.92,63.69 3.93,88.6 -6.38,26.5 -15.15,18 -36.23,62.91 -5.64,12 -28.31,60.26 -26.89,101.44 a 181,181 0 0 1 -0.26,22 177.56,177.56 0 0 1 -8,41.22 c -3.71,11.8 -13.33,56 -32.57,144.38 -8.58,39.43 -40.4,196.13 -3,249.19 a 129,129 0 0 1 15.36,27 c 10.45,25.11 10.73,49 10.1,61.22 -0.75,14.7 -2.86,12.86 -3.6,28.15 -1.31,27.46 4.82,47.62 6.12,51.7 6.78,21.41 15,25.76 24.45,43.54 5.7,10.72 10.83,24.39 13.45,127 0.87,33.72 0.41,36.24 1.53,53.88 1.51,23.75 3.32,50.53 10.61,80.46 7.35,30.18 13.08,34 19.91,57.19 22.21,75.26 -17.75,104.52 -0.34,188.89 2.13,10.31 6.33,27.32 6.44,51.58 0.09,18.81 0.21,43.06 -11.57,64.46 -13.63,24.76 -30.92,23.43 -56.67,45.32 -30.11,25.6 -50.35,64.73 -54.55,99.45 -4.71,38.92 13.76,47.22 29.88,119.15 A 529.18,529.18 0 0 1 648,3102.38 c 0.29,16.66 1.92,113.21 -7.49,160.39 a 60.78,60.78 0 0 0 -0.41,24.15 c 2.86,14.89 11.3,26.33 20.43,35.62 21,21.4 37.49,23 59.67,36.78 4.31,2.67 56,35.67 64.8,86.61 4.91,28.36 -9.63,26.56 -7,67.48 1.58,24.19 7.24,33.81 14.44,87.17 1.39,10.38 2.31,18.43 2,29.09 -0.37,11.15 -2.16,26.06 -10.28,50.18 -7.83,23.25 -12.89,29.37 -20,46.83 -15.18,37.38 -16.73,70.29 -17.5,86.55 -0.67,14.4 0.75,9.45 6.91,75.27 5.59,59.65 6.19,82.69 1.43,110.05 a 228.82,228.82 0 0 1 -7.57,32.73 c -6.33,19.95 -12.34,28.49 -21.56,56.24 -2.93,8.81 -4.39,13.22 -5.47,18.5 -3.69,18.11 -1,28.09 -1.48,43.07 -0.4,13 -3,22.12 -8.33,40.33 -9.4,32.34 -18.42,40.75 -29.89,68.43 0,0 -25.93,62.64 -13.44,135.42 a 43.45,43.45 0 0 0 5.88,16 c 3.85,6.17 9.55,11.55 19.21,16.72 22.61,12.11 43.25,10.37 43.29,13.17 0,2.4 -15.35,2.28 -33.8,9.56 -14.4,5.67 -25.27,13.72 -28.92,17.21 -24.49,23.37 7.37,97.84 17.21,120.34 33.83,77.37 82.5,141.69 96.28,197.21 6,24.18 4.18,41.78 3.41,47.66 -2.24,17.19 -7.15,24.46 -13.26,43.46 -5.39,16.78 -12.83,39.92 -11.81,65.49 1.51,38.12 20.47,48.06 14.1,81.45 -2.22,11.7 -4.82,11.88 -6.62,25.07 -2.78,20.34 0.86,38.31 4.53,55.7 2.58,12.25 3.7,13.84 6.06,24 a 243.53,243.53 0 0 1 6.06,61.78 h 16.72 l 0.08,-4772.5 v -56.3 c 0,0 -8.18,0.71 -12.43,16.2 z"
           id="path17" />
        <path
           class="cls-1"
           d="m 975.8,2997.15 c 16.12,-71.93 34.59,-80.23 29.88,-119.15 -4.2,-34.72 -24.44,-73.85 -54.55,-99.45 -25.75,-21.89 -43,-20.56 -56.67,-45.32 -11.78,-21.4 -11.66,-45.65 -11.57,-64.46 0.11,-24.26 4.31,-41.27 6.44,-51.58 17.41,-84.37 -22.55,-113.63 -0.34,-188.89 6.83,-23.14 12.56,-27 19.91,-57.19 7.29,-29.93 9.1,-56.71 10.61,-80.46 1.12,-17.64 0.67,-20.16 1.53,-53.88 2.62,-102.58 7.75,-116.25 13.45,-127 9.45,-17.78 17.67,-22.13 24.46,-43.54 1.29,-4.08 7.42,-24.24 6.11,-51.7 -0.73,-15.29 -2.84,-13.45 -3.6,-28.15 -0.63,-12.2 -0.34,-36.11 10.1,-61.22 a 129,129 0 0 1 15.36,-27 c 37.44,-53.06 5.62,-209.76 -3,-249.19 -19.24,-88.39 -28.85,-132.58 -32.57,-144.38 a 177.56,177.56 0 0 1 -8,-41.22 181,181 0 0 1 -0.26,-22 c 1.43,-41.18 -21.25,-89.44 -26.89,-101.44 -21.08,-44.87 -29.85,-36.41 -36.23,-62.91 -6,-24.91 2.37,-29.87 3.93,-88.6 0.9,-34.08 1.36,-51.11 -3.68,-66.83 -6.5,-20.25 -15,-28.32 -24,-59.11 -4.39,-15 -6.58,-22.52 -7.25,-33.39 -1.91,-31.12 11.49,-37.65 9.28,-66.11 -1,-13.15 -3.59,-8.06 -11,-41.11 -7,-31.2 -6.82,-45.36 -6.65,-50.81 0.43,-13.45 2.25,-11 4.17,-31.57 2.79,-29.79 0.42,-50.5 -0.17,-55.32 a 213.66,213.66 0 0 0 -6.29,-31.32 c -11.3,-42.17 -13.2,-98.64 -15.2,-158 -2.16,-64.11 -3.24,-96.16 -0.12,-115.72 0,0 5.74,-36.1 1.52,-63.58 -0.12,-0.76 -0.8,-5.5 -1.79,-12.08 -0.45,-3 -1,-6.84 -1.67,-12.19 a 94,94 0 0 0 -3.08,-15.86 c -4.26,-15.49 -12.43,-16.17 -12.43,-16.17 v 56.3 l 0.08,4772.5 h 16.72 a 243.53,243.53 0 0 1 6.06,-61.78 c 2.36,-10.15 3.48,-11.74 6.06,-24 3.67,-17.39 7.31,-35.36 4.53,-55.7 -1.8,-13.19 -4.39,-13.37 -6.62,-25.07 -6.37,-33.39 12.59,-43.33 14.1,-81.45 1,-25.57 -6.42,-48.71 -11.81,-65.49 -6.11,-19 -11,-26.27 -13.26,-43.46 -0.77,-5.88 -2.6,-23.48 3.41,-47.66 13.78,-55.52 62.45,-119.84 96.29,-197.21 9.83,-22.5 41.69,-97 17.2,-120.34 -3.65,-3.49 -14.52,-11.54 -28.92,-17.21 -18.45,-7.28 -33.83,-7.16 -33.8,-9.56 0,-2.8 20.68,-1.06 43.29,-13.17 9.66,-5.17 15.36,-10.55 19.21,-16.72 a 43.45,43.45 0 0 0 5.88,-16 c 12.5,-72.78 -13.44,-135.42 -13.44,-135.42 -11.46,-27.68 -20.49,-36.09 -29.89,-68.43 -5.29,-18.21 -7.93,-27.32 -8.33,-40.33 -0.45,-15 2.21,-25 -1.48,-43.07 -1.08,-5.28 -2.54,-9.69 -5.47,-18.5 -9.22,-27.75 -15.23,-36.29 -21.56,-56.24 a 230.19,230.19 0 0 1 -7.57,-32.73 c -4.76,-27.36 -4.16,-50.4 1.43,-110.05 6.16,-65.82 7.59,-60.87 6.91,-75.27 -0.77,-16.26 -2.32,-49.17 -17.5,-86.55 -7.09,-17.46 -12.15,-23.58 -20,-46.83 -8.11,-24.12 -9.91,-39 -10.28,-50.18 -0.35,-10.66 0.57,-18.71 2,-29.09 7.19,-53.36 12.86,-63 14.43,-87.17 2.66,-40.92 -11.88,-39.12 -7,-67.48 8.83,-50.94 60.48,-83.94 64.79,-86.61 22.18,-13.78 38.64,-15.38 59.67,-36.78 9.14,-9.29 17.57,-20.73 20.43,-35.62 a 60.78,60.78 0 0 0 -0.41,-24.15 c -9.41,-47.18 -7.77,-143.73 -7.49,-160.39 a 529.18,529.18 0 0 1 12.6,-105.19 z"
           id="path19" />
        <path
           class="cls-2"
           d="m 813.18,5191.15 h -18.89 l 0.07,-2.56 c 0.41,-15.66 -2,-29.92 -7.05,-42.4 -0.8,-2 -1.59,-3.69 -2.34,-5.34 a 99.12,99.12 0 0 1 -5,-12.59 c -1.91,-6 -5.9,-18.53 -5.33,-32.47 0.21,-4.94 0.87,-7 4.07,-16.95 1.14,-3.53 2.61,-8.09 4.51,-14.19 8.37,-26.8 9.67,-33.69 10.29,-38.45 A 124.59,124.59 0 0 0 794,5000 c -4.51,-66.33 -6.77,-99.62 -20.06,-124.48 -2.54,-4.75 -5.14,-8.94 -7.65,-13 -6,-9.64 -11.62,-18.75 -16,-34.18 -2.79,-9.79 -6.26,-22 -4.85,-36.75 0.1,-1.08 0.22,-2.07 0.67,-5.74 0.37,-3.08 1,-8.06 2,-16.61 1,-8.55 1.5,-12.6 1.61,-13.54 1.94,-17.53 -3.12,-42.73 -13.21,-65.77 a 159.43,159.43 0 0 0 -12.27,-22.77 c -1.45,-2.31 -2.82,-4.5 -4.1,-6.76 -29.44,-52.05 -5.25,-131.93 10.76,-184.79 q 0.72,-2.33 1.45,-4.72 c 6.15,-19.94 13.12,-42.55 4.38,-66 a 84.63,84.63 0 0 0 -4.25,-9.33 64.79,64.79 0 0 1 -6.74,-18.44 c -4.31,-20.83 0.07,-40.35 2.69,-52 a 43.76,43.76 0 0 1 1.28,-4.72 c 0.77,-2.46 2.36,-7.59 6.43,-21.84 6.37,-22.36 8.22,-30 9.45,-39 A 167.35,167.35 0 0 0 747,4236.8 c 0.23,-36.78 -10.08,-97 -16.25,-133 l -1.32,-7.73 c -3.8,-22.37 -6.31,-38.46 -8.14,-50.2 -4.43,-28.47 -4.9,-31.44 -10.29,-38.72 -1.31,-1.76 -2.85,-3.69 -4.48,-5.73 -9,-11.25 -21.32,-26.68 -23.28,-49 a 68.62,68.62 0 0 1 -0.18,-8.55 29.8,29.8 0 0 0 -1,-10 c -3.8,-14.58 -15.57,-28.15 -33.13,-38.23 a 65.06,65.06 0 0 0 -16.3,-6.68 c -5.32,-1.54 -10.35,-3 -17.17,-8.3 a 73.17,73.17 0 0 1 -21.8,-28 80.32,80.32 0 0 1 -5.52,-21.06 c -3.17,-30.21 43.66,-81.41 71.85,-109.23 l 0.08,-0.08 c 97.49,-96.21 102,-109.42 101.17,-123 -0.46,-7.91 -2.75,-15.88 -5.17,-24.33 -4.8,-16.7 -9.76,-34 0,-51.34 a 71.88,71.88 0 0 1 4.4,-6.72 c 3,-4.16 5.5,-7.74 6.73,-13.82 3.27,-16.2 -6.58,-31.54 -14.28,-41.67 -18.58,-24.45 -43.91,-44.16 -70.74,-65 -38.68,-30.1 -78.68,-61.22 -96.84,-107.87 -6.37,-16.33 -8,-29.26 -9.35,-39.65 -6,-47 7.5,-75.59 29.88,-123 10.51,-22.25 22.42,-47.47 35.49,-80.88 a 876.77,876.77 0 0 0 30,-90.51 c 9.2,-32.74 13.4,-47.68 35,-63.13 2.69,-1.92 5.81,-4 9.11,-6.12 16.2,-10.6 38.38,-25.1 53,-52.83 7.81,-14.75 11.78,-25.19 10.41,-38.07 -1.14,-10.82 -5.78,-17.92 -10.26,-24.78 -4.8,-7.34 -9.76,-14.93 -9.68,-26.39 0.07,-8.57 2.86,-12.57 6.71,-18.12 A 91.62,91.62 0 0 0 777,2704.42 c 6.84,-17.19 7.92,-34.61 10.07,-69.3 0.94,-15.19 1.35,-30.7 1.2,-46.1 l -0.1,-324.05 a 101.64,101.64 0 0 0 -4.41,-29.12 99.62,99.62 0 0 0 -9,-20.53 c -0.7,-1.29 -1.39,-2.53 -2,-3.78 -7.89,-15.07 -24.79,-53 -11.26,-79.92 a 51.46,51.46 0 0 1 8,-11.21 c 3.88,-4.48 7.54,-8.71 10.34,-17.72 a 53,53 0 0 0 2.64,-21.23 37.14,37.14 0 0 0 -4.36,-14.63 c -1.89,-3.86 -3.67,-7.52 -3.56,-13.54 0.13,-7.22 2.88,-11.31 5.8,-15.65 a 43,43 0 0 0 6,-11.47 c 2.82,-8.6 1.84,-15.64 -3.29,-37.11 -5.18,-21.69 -9,-35.38 -11.59,-44.44 -4.12,-14.64 -5.37,-19.06 -4.38,-28.51 a 52.5,52.5 0 0 1 5.88,-19.94 c 2.48,-5.09 4.62,-9.48 4.75,-19.55 0.27,-21.69 -9.32,-41 -13.46,-48.24 a 98.67,98.67 0 0 0 -9.94,-14.28 c -4.2,-5.22 -7.52,-9.34 -9.07,-17.67 -1.21,-6.5 -0.33,-10 0.88,-14.86 a 89.28,89.28 0 0 0 2.83,-17.43 c 1.29,-18.17 -1.61,-33.08 -3.35,-42 a 121.55,121.55 0 0 0 -3.35,-13.5 105.11,105.11 0 0 1 -3.49,-14.9 c -1.57,-9.4 -3.36,-20 -2.41,-32.1 1.94,-24.68 14.23,-43.36 21.58,-54.52 a 132.33,132.33 0 0 1 10.29,-13.7 c 3.63,-4.33 5.81,-6.94 7.93,-12.93 3.73,-10.58 3.87,-22.54 0.39,-35.54 -7.8,-11.43 -3.89,-27.29 -3.18,-29.84 a 40.62,40.62 0 0 0 -2.63,-15.94 40.14,40.14 0 0 0 -7.66,-12.23 c -0.37,-0.42 -0.69,-0.8 -1,-1.14 -6.92,-8.46 -5.91,-17.82 -4.51,-30.77 1.07,-9.87 2.41,-22.16 0.64,-38.2 -1.77,-16.04 -3.18,-28.91 -12.42,-36.83 a 48.75,48.75 0 0 0 -4.23,-3.14 43.86,43.86 0 0 1 -10.91,-9.81 65.21,65.21 0 0 1 -10,-19 44.1,44.1 0 0 1 -1.77,-6.43 c -0.3,-1.44 -0.64,-3.08 -1.41,-5.87 -2.47,-9 -5.28,-19.3 -12.53,-28.82 a 14.16,14.16 0 0 0 -2,-2.2 c -1.17,-1.13 -3.35,-3.25 -8.92,-9.31 -4.56,-4.94 -8.91,-9.84 -13,-14.55 -0.05,-0.07 -5.58,-6.52 -9.88,-11.87 -9,-11.19 -15.9,-26.92 -24.68,-46.84 -2.28,-5.19 -4.65,-10.56 -7.25,-16.31 -1.94,-4.3 -3.67,-8 -5.2,-11.37 -6.85,-14.85 -10,-21.63 -12.23,-33.83 -2.94,-15.93 -1.71,-27 3.88,-34.78 a 20.13,20.13 0 0 1 3.18,-3.52 48.44,48.44 0 0 0 5.21,-5.61 c 5,-6.16 9.81,-12 11.56,-20.07 a 33.29,33.29 0 0 0 0.17,-12.64 v -0.26 c -1,-14.72 1.64,-24.39 8.05,-29.56 0.72,-0.58 1.5,-1.11 2.32,-1.67 a 40.05,40.05 0 0 0 6.52,-5.3 c 3.66,-3.66 6,-7.29 6.58,-10.22 a 15,15 0 0 0 -0.1,-6.24 v -0.15 c -4.15,-26.49 27.21,-94.31 28.54,-97.19 11.85,-25.63 6.61,-41.09 6.56,-41.25 L 704,892 c -3.66,-15.13 -2.88,-28.18 2.31,-38.77 3.38,-6.91 8.15,-11.83 12.76,-16.59 5.84,-6 11.88,-12.27 15.93,-23.1 a 59.79,59.79 0 0 0 3.41,-14.24 v -0.1 l 34.89,-222 a 14.78,14.78 0 0 0 -1,-8.63 c -3.19,-7.08 -11.2,-8.62 -12.1,-8.77 -5.37,-0.95 -18.59,-4.47 -25.94,-16.69 a 28,28 0 0 1 -4.4,-14.15 c -0.2,-10.38 6.07,-21.2 15.24,-26.32 a 28.43,28.43 0 0 1 8.08,-2.88 18.59,18.59 0 0 0 8.75,-3.94 26.4,26.4 0 0 0 6.08,-7.32 c 4.93,-8.24 8.26,-19.46 9.65,-32.45 4,-38 5.57,-51.45 8,-65.75 0.93,-5.34 2,-10.72 3.11,-16 v -0.14 c 3.71,-13.51 10.44,-16.89 13.31,-17.73 a 4.39,4.39 0 0 1 1.52,-0.27 4.21,4.21 0 0 1 1.6,0.3 c 2.9,0.86 9.56,4.29 13.24,17.7 v 0.14 c 1.14,5.24 2.18,10.61 3.11,16 2.47,14.29 4,27.77 8,65.75 1.39,13 4.73,24.21 9.65,32.45 a 26.4,26.4 0 0 0 6.08,7.32 18.59,18.59 0 0 0 8.75,3.94 28.58,28.58 0 0 1 8.09,2.88 c 9.17,5.12 15.43,15.94 15.23,26.32 a 28,28 0 0 1 -4.4,14.15 c -7.35,12.21 -20.57,15.74 -25.91,16.69 -0.93,0.15 -8.93,1.69 -12.13,8.77 a 14.78,14.78 0 0 0 -1,8.59 L 869,799.26 a 60.27,60.27 0 0 0 3.41,14.24 c 4,10.83 10.09,17.07 15.93,23.1 4.61,4.76 9.38,9.68 12.76,16.59 5.19,10.59 6,23.64 2.31,38.77 l -0.08,0.28 c -0.05,0.14 -5.29,15.6 6.56,41.24 1.33,2.87 32.7,70.69 28.54,97.18 v 0.15 a 15,15 0 0 0 -0.1,6.24 c 0.59,2.93 2.92,6.56 6.58,10.22 a 40.05,40.05 0 0 0 6.52,5.3 c 0.82,0.56 1.6,1.09 2.32,1.67 6.41,5.17 9,14.84 8.06,29.56 v 0.26 a 33.08,33.08 0 0 0 0.18,12.64 c 1.74,8.09 6.51,13.91 11.55,20.07 a 47.33,47.33 0 0 0 5.22,5.61 20.53,20.53 0 0 1 3.18,3.52 c 5.58,7.8 6.81,18.85 3.87,34.78 -2.25,12.21 -5.38,19 -12.23,33.84 -1.53,3.33 -3.25,7.06 -5.2,11.36 -2.6,5.75 -5,11.12 -7.25,16.31 -8.78,19.92 -15.71,35.65 -24.68,46.84 -4.3,5.35 -9.83,11.8 -9.88,11.87 -4,4.71 -8.4,9.61 -12.95,14.55 -5.58,6.06 -7.76,8.18 -8.93,9.31 a 14.16,14.16 0 0 0 -2,2.2 c -7.25,9.52 -10.06,19.77 -12.53,28.82 -0.76,2.79 -1.11,4.43 -1.41,5.87 a 42.85,42.85 0 0 1 -1.77,6.43 65,65 0 0 1 -10,19 44,44 0 0 1 -10.9,9.81 47.42,47.42 0 0 0 -4.24,3.14 c -9.24,7.92 -10.64,20.68 -12.42,36.83 -1.78,16.15 -0.43,28.33 0.64,38.2 1.4,13 2.42,22.31 -4.51,30.77 l -1,1.14 a 38.76,38.76 0 0 0 -10.29,28.17 c 0.7,2.55 4.62,18.41 -3.19,29.84 -3.48,13 -3.34,25 0.4,35.54 2.11,6 4.29,8.6 7.92,12.93 a 133.58,133.58 0 0 1 10.3,13.7 c 7.34,11.16 19.63,29.84 21.57,54.52 1,12.06 -0.84,22.7 -2.41,32.09 a 105,105 0 0 1 -3.49,14.91 121.55,121.55 0 0 0 -3.35,13.5 c -1.73,8.91 -4.63,23.83 -3.34,42 a 89.47,89.47 0 0 0 2.82,17.43 c 1.22,4.85 2.1,8.36 0.88,14.86 -1.55,8.33 -4.86,12.45 -9.07,17.67 a 98.74,98.74 0 0 0 -9.93,14.28 c -4.14,7.28 -13.74,26.55 -13.47,48.24 0.13,10.07 2.27,14.46 4.75,19.55 a 52.5,52.5 0 0 1 5.88,19.94 c 1,9.45 -0.25,13.87 -4.38,28.51 -2.55,9.06 -6.41,22.75 -11.59,44.44 -5.12,21.47 -6.11,28.5 -3.29,37.11 a 43,43 0 0 0 6,11.47 c 2.92,4.34 5.67,8.43 5.8,15.65 0.11,6 -1.67,9.68 -3.56,13.54 a 37.31,37.31 0 0 0 -4.36,14.63 53.32,53.32 0 0 0 2.64,21.23 c 2.8,9 6.46,13.24 10.34,17.72 a 51.46,51.46 0 0 1 7.95,11.21 c 13.54,26.89 -3.37,64.85 -11.26,79.92 -0.65,1.25 -1.34,2.49 -2,3.78 a 99.13,99.13 0 0 0 -9,20.53 101.36,101.36 0 0 0 -4.42,29.12 l -0.1,324 c -0.14,15.43 0.26,30.94 1.2,46.12 2.15,34.69 3.23,52.11 10.08,69.3 a 91.28,91.28 0 0 0 11.23,20.65 c 3.86,5.55 6.64,9.55 6.71,18.12 0.09,11.46 -4.88,19 -9.68,26.39 -4.48,6.86 -9.12,14 -10.26,24.78 -1.36,12.85 2.79,23.69 10.41,38.07 14.8,27.91 36.78,42.3 54.44,53.86 4.35,2.84 8.45,5.53 12.06,8.17 20.7,15.2 24.86,29 34,59.24 a 838.7,838.7 0 0 0 30.54,86.62 c 14.51,35.11 28.48,63 39.71,85.45 25,49.95 40.08,80.09 30.54,124.59 -3.92,18.29 -10.29,31 -14.51,39.41 -23.29,46.46 -62.34,76.86 -100.1,106.26 -26.95,21 -52.4,40.79 -71.08,65.4 -7.69,10.14 -17.54,25.48 -14.27,41.67 1.22,6.08 3.77,9.66 6.73,13.82 a 71.88,71.88 0 0 1 4.4,6.72 c 9.75,17.37 4.79,34.64 0,51.34 -2.43,8.45 -4.72,16.42 -5.18,24.33 -0.78,13.6 3.69,26.81 101.17,123 l 0.08,0.08 c 28.2,27.82 75,79 71.85,109.23 a 80.32,80.32 0 0 1 -5.52,21.06 73.17,73.17 0 0 1 -21.8,28 c -6.82,5.31 -11.85,6.76 -17.17,8.3 a 65.21,65.21 0 0 0 -16.3,6.68 c -17.56,10.08 -29.33,23.65 -33.13,38.23 a 29.8,29.8 0 0 0 -1,10 66.72,66.72 0 0 1 -0.18,8.55 c -2,22.34 -14.28,37.77 -23.28,49 -1.63,2 -3.17,4 -4.47,5.73 -5.4,7.28 -5.86,10.25 -10.3,38.72 -1.83,11.74 -4.33,27.83 -8.14,50.2 l -1.32,7.73 c -6.17,36 -16.48,96.19 -16.25,133 a 167.52,167.52 0 0 0 1.48,22.73 c 1.23,9 3.08,16.62 9.46,39 4.06,14.25 5.66,19.38 6.42,21.84 a 43.75,43.75 0 0 1 1.29,4.72 c 2.61,11.66 7,31.18 2.68,52 a 64.79,64.79 0 0 1 -6.74,18.44 84.72,84.72 0 0 0 -4.24,9.33 c -8.75,23.47 -1.78,46.08 4.37,66 0.49,1.6 1,3.17 1.45,4.72 16,52.86 40.21,132.74 10.76,184.79 -1.28,2.26 -2.65,4.45 -4.09,6.76 A 157.43,157.43 0 0 0 871,4689.91 c -10.1,23 -15.16,48.24 -13.21,65.77 0.1,0.94 0.6,5.11 1.59,13.45 1,8.64 1.63,13.62 2,16.7 0.44,3.67 0.56,4.66 0.66,5.74 1.41,14.78 -2.06,27 -4.85,36.75 -4.39,15.43 -10,24.54 -16,34.18 -2.51,4.05 -5.11,8.24 -7.65,13 -13.29,24.86 -15.55,58.15 -20,124.48 a 123.85,123.85 0 0 0 0.44,26.23 c 0.62,4.76 1.92,11.65 10.29,38.45 1.9,6.09 3.37,10.66 4.51,14.19 3.2,9.94 3.86,12 4.07,16.95 0.57,13.94 -3.41,26.45 -5.33,32.47 a 100.87,100.87 0 0 1 -5,12.59 c -0.76,1.65 -1.54,3.36 -2.35,5.34 -5.09,12.48 -7.46,26.74 -7,42.4 z m -13.78,-5 h 8.67 c -0.11,-15.35 2.39,-29.41 7.46,-41.85 0.85,-2.07 1.65,-3.83 2.43,-5.53 a 95.48,95.48 0 0 0 4.74,-12 c 1.82,-5.74 5.63,-17.68 5.09,-30.75 -0.17,-4.26 -0.66,-5.77 -3.83,-15.62 -1.14,-3.54 -2.61,-8.12 -4.52,-14.23 -8.49,-27.2 -9.8,-34.11 -10.48,-39.29 a 130.31,130.31 0 0 1 -0.47,-27.22 c 4.55,-67 6.83,-100.69 20.63,-126.49 2.62,-4.9 5.26,-9.16 7.81,-13.27 5.79,-9.34 11.26,-18.16 15.47,-32.92 2.67,-9.38 6,-21.06 4.68,-34.91 -0.1,-1 -0.22,-2 -0.66,-5.61 -0.37,-3.08 -1,-8.07 -2,-16.62 -1,-8.55 -1.51,-12.63 -1.61,-13.58 -2,-18.35 3.17,-44.53 13.6,-68.32 A 162.25,162.25 0 0 1 879,4664.49 c 1.42,-2.27 2.76,-4.41 4,-6.57 28.39,-50.19 4.57,-128.84 -11.2,-180.88 l -1.44,-4.7 c -6.07,-19.68 -13.62,-44.17 -4.28,-69.24 a 90.6,90.6 0 0 1 4.47,-9.85 60.18,60.18 0 0 0 6.3,-17.19 c 4.1,-19.77 0,-37.9 -2.66,-49.89 a 41,41 0 0 0 -1.18,-4.33 c -0.77,-2.48 -2.38,-7.65 -6.46,-22 -6.45,-22.64 -8.34,-30.43 -9.6,-39.68 a 173.67,173.67 0 0 1 -1.53,-23.37 c -0.23,-37.22 10.13,-97.7 16.32,-133.84 l 1.32,-7.73 c 3.8,-22.34 6.3,-38.4 8.13,-50.13 4.51,-28.94 5.09,-32.66 11.22,-40.93 1.36,-1.83 2.92,-3.79 4.58,-5.87 8.6,-10.76 20.38,-25.5 22.21,-46.33 a 62.49,62.49 0 0 0 0.16,-8 34.83,34.83 0 0 1 1.13,-11.41 c 4.21,-16.12 16.48,-30.4 35.48,-41.3 a 70,70 0 0 1 17.4,-7.15 c 5.27,-1.52 9.43,-2.72 15.49,-7.44 a 68.07,68.07 0 0 0 20.28,-26 76.48,76.48 0 0 0 5.14,-19.59 c 3.06,-29.18 -48.21,-83.26 -70.39,-105.16 l -0.08,-0.07 C 844.61,3628 840.28,3614.47 841.17,3599 c 0.49,-8.47 3,-17.09 5.36,-25.43 4.72,-16.44 9.18,-32 0.45,-47.51 a 69.69,69.69 0 0 0 -4.12,-6.28 c -3,-4.23 -6.12,-8.6 -7.56,-15.72 -3.67,-18.17 6.92,-34.78 15.2,-45.68 19.08,-25.13 44.78,-45.14 72,-66.32 37.32,-29.06 75.92,-59.11 98.7,-104.56 4.1,-8.18 10.3,-20.55 14.09,-38.22 9.18,-42.78 -5.62,-72.33 -30.12,-121.3 -11.26,-22.5 -25.28,-50.51 -39.86,-85.78 a 842.13,842.13 0 0 1 -30.71,-87.09 c -9,-30 -12.78,-42.44 -32.13,-56.65 -3.5,-2.56 -7.55,-5.21 -11.84,-8 -18.14,-11.87 -40.72,-26.65 -56.12,-55.7 -8.07,-15.23 -12.46,-26.81 -11,-40.93 1.27,-12 6.46,-20 11.05,-27 4.79,-7.34 8.93,-13.67 8.86,-23.62 -0.05,-7 -2.1,-10 -5.82,-15.31 a 97.32,97.32 0 0 1 -11.77,-21.65 c -7.14,-17.94 -8.24,-35.62 -10.42,-70.84 -1,-15.3 -1.35,-30.93 -1.21,-46.46 l 0.1,-324 a 106.5,106.5 0 0 1 4.63,-30.57 103.63,103.63 0 0 1 9.41,-21.47 c 0.68,-1.26 1.35,-2.48 2,-3.7 7.54,-14.38 23.72,-50.53 11.23,-75.36 a 47.15,47.15 0 0 0 -7.27,-10.18 c -4,-4.67 -8.23,-9.5 -11.33,-19.51 a 57.67,57.67 0 0 1 -2.85,-23.16 41.88,41.88 0 0 1 4.85,-16.37 c 1.75,-3.6 3.14,-6.44 3,-11.26 -0.1,-5.74 -2.24,-8.92 -4.95,-13 a 47.93,47.93 0 0 1 -6.58,-12.7 c -3.36,-10.26 -1.89,-18.6 3.18,-39.83 5.2,-21.79 9.07,-35.54 11.64,-44.63 4,-14.3 5.11,-18.14 4.22,-26.64 a 47.78,47.78 0 0 0 -5.4,-18.27 c -2.51,-5.16 -5.11,-10.49 -5.25,-21.67 -0.3,-22.92 9.77,-43.15 14.11,-50.78 a 103.81,103.81 0 0 1 10.39,-15 c 4.05,-5 6.73,-8.35 8.05,-15.44 1,-5.44 0.32,-8.18 -0.82,-12.74 a 94.27,94.27 0 0 1 -3,-18.29 c -1.34,-18.82 1.64,-34.14 3.42,-43.29 a 126.72,126.72 0 0 1 3.47,-14 101.63,101.63 0 0 0 3.35,-14.3 c 1.53,-9.11 3.25,-19.43 2.36,-30.88 -1.84,-23.4 -13.69,-41.4 -20.77,-52.16 a 128.32,128.32 0 0 0 -10,-13.24 c -3.71,-4.43 -6.39,-7.63 -8.8,-14.47 -4.12,-11.68 -4.25,-24.78 -0.39,-38.94 l 0.11,-0.43 0.26,-0.36 c 7.27,-10.21 2.69,-26.06 2.64,-26.22 l -0.09,-0.31 v -0.31 a 43.84,43.84 0 0 1 11.48,-31.91 c 0.34,-0.38 0.64,-0.73 0.89,-1 5.6,-6.85 4.73,-14.89 3.41,-27.07 -1.1,-10.11 -2.46,-22.7 -0.64,-39.28 1.9,-17.26 3.4,-30.88 14.13,-40.09 a 54.37,54.37 0 0 1 4.67,-3.46 39.29,39.29 0 0 0 9.94,-8.66 59.94,59.94 0 0 0 9.24,-17.53 38.91,38.91 0 0 0 1.6,-5.8 c 0.3,-1.44 0.67,-3.22 1.48,-6.16 2.46,-9 5.53,-20.24 13.38,-30.53 a 18.53,18.53 0 0 1 2.46,-2.76 c 1.13,-1.1 3.24,-3.15 8.73,-9.1 4.51,-4.91 8.83,-9.76 12.83,-14.43 0.06,-0.06 5.54,-6.45 9.78,-11.74 8.56,-10.67 15.38,-26.14 24,-45.72 2.3,-5.2 4.67,-10.58 7.28,-16.36 1.94,-4.31 3.67,-8.06 5.21,-11.4 6.67,-14.46 9.71,-21.06 11.85,-32.64 3.52,-19.06 0,-26.8 -3,-31 a 16,16 0 0 0 -2.51,-2.76 53.38,53.38 0 0 1 -5.69,-6.11 c -5.2,-6.35 -10.57,-12.91 -12.57,-22.18 a 38.11,38.11 0 0 1 -0.24,-14.42 c 0.84,-12.72 -1.25,-21.2 -6.21,-25.21 -0.56,-0.45 -1.22,-0.9 -2,-1.43 a 44.2,44.2 0 0 1 -7.25,-5.9 c -4.4,-4.41 -7.15,-8.83 -7.94,-12.76 a 19.92,19.92 0 0 1 0.1,-8.24 c 3.85,-25.06 -27.83,-93.53 -28.15,-94.22 -12.3,-26.61 -7.4,-43.05 -6.77,-44.91 3.34,-13.92 2.68,-25.79 -2,-35.28 -3,-6.2 -7.32,-10.63 -11.86,-15.31 -6.2,-6.4 -12.6,-13 -17,-24.83 a 65.1,65.1 0 0 1 -3.69,-15.36 L 829.18,578 a 19.75,19.75 0 0 1 1.37,-11.46 c 4.26,-9.46 14.66,-11.45 15.84,-11.65 4.64,-0.82 16.19,-3.88 22.48,-14.33 a 23.07,23.07 0 0 0 3.69,-11.68 c 0.16,-8.47 -5.17,-17.66 -12.68,-21.85 a 23.59,23.59 0 0 0 -6.78,-2.38 23.25,23.25 0 0 1 -10.77,-4.93 31.26,31.26 0 0 1 -7.22,-8.63 c -5.29,-8.86 -8.86,-20.79 -10.33,-34.49 -4,-37.86 -5.55,-51.29 -8,-65.43 -0.91,-5.26 -1.93,-10.54 -3,-15.69 -3.18,-11.5 -8.4,-13.78 -9.92,-14.2 h -0.07 -0.06 c -1.53,0.42 -6.76,2.68 -9.94,14.2 -1.12,5.16 -2.14,10.44 -3,15.69 -2.45,14.15 -4,27.58 -8,65.43 -1.46,13.7 -5,25.63 -10.33,34.49 a 31.09,31.09 0 0 1 -7.22,8.63 23.2,23.2 0 0 1 -10.77,4.93 23.59,23.59 0 0 0 -6.78,2.38 c -7.5,4.19 -12.84,13.38 -12.67,21.85 a 23.09,23.09 0 0 0 3.68,11.68 c 6.29,10.45 17.84,13.51 22.51,14.33 1.15,0.2 11.55,2.2 15.81,11.65 a 19.67,19.67 0 0 1 1.36,11.5 l -34.97,221.85 a 65.1,65.1 0 0 1 -3.69,15.36 c -4.42,11.81 -10.83,18.43 -17,24.83 -4.54,4.68 -8.82,9.11 -11.86,15.31 -4.65,9.49 -5.31,21.36 -2,35.28 0.63,1.87 5.53,18.3 -6.77,44.91 -0.32,0.69 -32,69.18 -28.15,94.23 a 20,20 0 0 1 0.11,8.23 c -0.8,3.93 -3.54,8.35 -7.95,12.76 a 44.2,44.2 0 0 1 -7.25,5.9 c -0.76,0.53 -1.43,1 -2,1.43 -5,4 -7.05,12.49 -6.21,25.21 a 37.91,37.91 0 0 1 -0.24,14.42 c -2,9.27 -7.37,15.83 -12.57,22.18 a 52.46,52.46 0 0 1 -5.69,6.11 16,16 0 0 0 -2.51,2.76 c -3,4.17 -6.54,11.91 -3,31 2.14,11.58 5.18,18.18 11.85,32.64 1.54,3.34 3.27,7.09 5.21,11.4 2.62,5.78 5,11.16 7.28,16.36 8.63,19.58 15.44,35 24,45.72 4.25,5.29 9.73,11.68 9.78,11.74 4,4.67 8.32,9.52 12.84,14.43 5.48,6 7.59,8 8.73,9.1 a 19.72,19.72 0 0 1 2.46,2.76 c 7.84,10.29 10.91,21.51 13.38,30.53 0.8,2.94 1.18,4.72 1.48,6.16 a 37.5,37.5 0 0 0 1.59,5.8 60.19,60.19 0 0 0 9.24,17.53 39.29,39.29 0 0 0 9.81,8.8 54.37,54.37 0 0 1 4.67,3.46 c 10.74,9.21 12.23,22.83 14.13,40.09 1.83,16.58 0.46,29.17 -0.63,39.28 -1.32,12.18 -2.2,20.22 3.4,27.07 l 0.89,1 a 43.84,43.84 0 0 1 11.48,31.91 v 0.31 l -0.09,0.31 c -0.05,0.16 -4.63,16 2.64,26.22 l 0.26,0.36 0.12,0.43 c 3.85,14.16 3.72,27.27 -0.4,38.94 -2.41,6.84 -5.09,10 -8.8,14.47 a 128.32,128.32 0 0 0 -10,13.24 c -7.08,10.76 -18.92,28.77 -20.76,52.16 -0.9,11.45 0.83,21.77 2.35,30.88 a 101.06,101.06 0 0 0 3.35,14.29 125.33,125.33 0 0 1 3.47,14 c 1.78,9.15 4.76,24.47 3.42,43.29 a 93.49,93.49 0 0 1 -3,18.29 c -1.14,4.56 -1.83,7.3 -0.82,12.74 1.32,7.09 4,10.41 8.05,15.44 a 103,103 0 0 1 10.39,15 c 4.34,7.63 14.41,27.86 14.12,50.78 -0.15,11.18 -2.74,16.51 -5.26,21.67 a 47.78,47.78 0 0 0 -5.4,18.27 c -0.89,8.5 0.2,12.34 4.22,26.64 2.57,9.09 6.44,22.84 11.64,44.63 5.07,21.23 6.54,29.57 3.18,39.83 a 47.64,47.64 0 0 1 -6.58,12.7 c -2.71,4 -4.85,7.21 -5,13 -0.09,4.82 1.3,7.66 3.05,11.26 a 41.88,41.88 0 0 1 4.85,16.37 57.72,57.72 0 0 1 -2.85,23.17 c -3.1,10 -7.28,14.83 -11.33,19.5 a 47.15,47.15 0 0 0 -7.27,10.18 c -12.49,24.83 3.7,61 11.23,75.36 0.64,1.22 1.31,2.44 2,3.7 a 104.22,104.22 0 0 1 9.4,21.47 106.5,106.5 0 0 1 4.63,30.57 l 0.1,324 c 0.15,15.5 -0.26,31.13 -1.21,46.44 -2.18,35.22 -3.28,52.9 -10.42,70.84 a 97.32,97.32 0 0 1 -11.77,21.65 c -3.72,5.35 -5.76,8.29 -5.82,15.31 -0.07,9.95 4.07,16.28 8.86,23.62 4.59,7 9.78,15 11.06,27 1.49,14.07 -2.9,25.67 -11,40.93 -15.26,28.87 -38.07,43.78 -54.72,54.67 -3.26,2.13 -6.34,4.14 -8.94,6 -20.19,14.42 -24,27.88 -33.11,60.41 a 884.52,884.52 0 0 1 -30.11,91 c -13.14,33.57 -25.61,60 -35.63,81.18 -22,46.57 -35.26,74.68 -29.44,120.22 1.3,10.11 2.91,22.7 9,38.47 17.67,45.36 57.11,76.05 95.26,105.73 25.9,20.15 52.68,41 71.65,66 8.28,10.9 18.87,27.49 15.2,45.68 -1.44,7.12 -4.55,11.49 -7.56,15.72 a 71.91,71.91 0 0 0 -4.12,6.28 c -8.73,15.55 -4.27,31.07 0.45,47.51 2.4,8.34 4.87,17 5.36,25.43 0.89,15.44 -3.43,28.95 -102.64,126.86 l -0.08,0.07 c -22.19,21.9 -73.46,76 -70.39,105.16 a 76.22,76.22 0 0 0 5.13,19.59 68.07,68.07 0 0 0 20.28,26 c 6.06,4.72 10.22,5.92 15.49,7.44 a 70,70 0 0 1 17.4,7.15 c 19,10.9 31.28,25.18 35.48,41.3 a 34.56,34.56 0 0 1 1.31,11.28 62.79,62.79 0 0 0 0.17,8 c 1.82,20.83 13.6,35.57 22.2,46.33 1.66,2.08 3.23,4 4.58,5.87 6.13,8.27 6.71,12 11.22,40.93 1.83,11.73 4.33,27.79 8.13,50.13 l 1.32,7.72 c 6.19,36.14 16.55,96.63 16.32,133.85 a 173.49,173.49 0 0 1 -1.53,23.37 c -1.26,9.26 -3.14,17 -9.6,39.68 -4.07,14.31 -5.68,19.48 -6.46,22 a 41,41 0 0 0 -1.18,4.33 c -2.69,12 -6.75,30.12 -2.66,49.89 a 60,60 0 0 0 6.3,17.19 90.6,90.6 0 0 1 4.47,9.85 c 9.34,25.07 1.79,49.56 -4.28,69.24 l -1.44,4.7 c -15.77,52 -39.59,130.69 -11.2,180.88 1.23,2.16 2.57,4.3 4,6.57 a 163.38,163.38 0 0 1 12.6,23.42 c 10.43,23.79 15.64,50 13.6,68.32 -0.1,1 -0.6,5.13 -1.59,13.49 -1,8.64 -1.64,13.63 -2,16.71 -0.44,3.62 -0.56,4.6 -0.65,5.61 -1.33,13.85 2,25.53 4.68,34.91 4.2,14.76 9.67,23.58 15.46,32.92 2.55,4.11 5.19,8.37 7.81,13.27 13.8,25.8 16.08,59.45 20.63,126.49 a 129.64,129.64 0 0 1 -0.47,27.22 c -0.68,5.18 -2,12.09 -10.48,39.29 -1.91,6.11 -3.38,10.69 -4.52,14.23 -3.17,9.85 -3.66,11.36 -3.83,15.62 -0.53,13.07 3.27,25 5.09,30.75 a 95.48,95.48 0 0 0 4.74,12 c 0.78,1.7 1.59,3.46 2.43,5.53 5.04,12.43 7.56,26.49 7.44,41.84 z"
           id="path21" />
        <path
           class="cls-3"
           d="M 824.74,5190 H 786 l 0.06,-2.56 a 243.44,243.44 0 0 0 -6,-61.15 c -1,-4.31 -1.79,-7.09 -2.54,-9.77 -1,-3.71 -2,-7.21 -3.53,-14.27 -3.5,-16.58 -7.46,-35.38 -4.56,-56.56 a 59.36,59.36 0 0 1 3.61,-14.53 58.19,58.19 0 0 0 3,-10.67 c 3.37,-17.67 -0.62,-28.51 -5.24,-41.05 -3.85,-10.44 -8.21,-22.27 -8.91,-39.83 -1,-26 6.46,-49.34 11.94,-66.36 2.07,-6.44 4,-11.58 5.73,-16.11 3.34,-8.82 6,-15.78 7.43,-26.9 1.3,-9.95 1.76,-26.13 -3.36,-46.74 -7.85,-31.61 -26.78,-65.49 -48.7,-104.72 -16.24,-29.06 -33,-59.11 -47.45,-92.09 -28.46,-65.09 -34.06,-106.53 -16.64,-123.15 3.71,-3.54 14.7,-11.81 29.73,-17.73 a 138.39,138.39 0 0 1 26,-7.06 c -8.33,-1.29 -21.56,-3.55 -35.73,-11.14 -9.38,-5 -15.78,-10.61 -20.14,-17.6 a 46,46 0 0 1 -6.23,-16.94 c -12.47,-72.65 13.34,-136.17 13.6,-136.8 4.46,-10.78 8.51,-18.57 12.43,-26.11 6,-11.54 11.66,-22.43 17.36,-42.06 5.23,-18 7.85,-27 8.23,-39.71 0.15,-4.88 0,-9.29 -0.23,-13.56 -0.39,-9 -0.76,-17.53 1.77,-29.93 1.1,-5.43 2.59,-9.9 5.54,-18.8 4.85,-14.59 8.86,-24 12.4,-32.32 a 242.36,242.36 0 0 0 9.15,-23.88 226.53,226.53 0 0 0 7.49,-32.4 c 4.59,-26.39 4.31,-47.86 -1.45,-109.39 -2.81,-30.05 -4.64,-45.32 -5.73,-54.44 -1.3,-10.89 -1.57,-13.16 -1.19,-21.18 0.76,-16.1 2.34,-49.6 17.68,-87.38 2.76,-6.79 5.23,-11.92 7.62,-16.88 a 224.72,224.72 0 0 0 12.3,-29.8 c 8.37,-24.85 9.82,-39.49 10.15,-49.46 0.36,-10.63 -0.58,-18.59 -1.94,-28.68 -3.69,-27.4 -6.92,-42.94 -9.52,-55.43 -2.41,-11.62 -4.15,-20 -4.93,-31.91 -1.4,-21.57 2,-31.87 4.7,-40.15 2.55,-7.79 4.57,-13.94 2.3,-27.06 -8.58,-49.45 -58,-81.44 -63.65,-84.92 a 200,200 0 0 0 -21.34,-11.21 c -12.75,-6 -24.8,-11.7 -38.8,-25.94 -11.88,-12.09 -18.59,-23.82 -21.1,-36.9 a 63.28,63.28 0 0 1 0.37,-24.89 v -0.22 c 8.44,-42.34 8,-125.9 7.45,-159.85 a 527.21,527.21 0 0 0 -12.38,-104.73 411.26,411.26 0 0 0 -20.18,-65.18 c -7.51,-19.4 -12.48,-32.22 -9.75,-54.82 4.42,-36.53 26.17,-76.19 55.42,-101 10.36,-8.81 19.33,-13.9 27.25,-18.4 11.7,-6.63 20.94,-11.88 28.84,-26.23 11.47,-20.83 11.36,-44.35 11.27,-63.24 -0.1,-21.51 -3.46,-37.26 -5.67,-47.68 -0.26,-1.21 -0.5,-2.34 -0.72,-3.41 -8.61,-41.71 -3.41,-69.8 1.62,-97 5.12,-27.67 10,-53.81 -1.23,-91.71 a 184.73,184.73 0 0 0 -8.24,-22.34 194.78,194.78 0 0 1 -11.71,-35 c -7.49,-30.75 -9.25,-58.55 -10.67,-80.89 -0.7,-11.08 -0.79,-16.33 -1,-26.78 -0.11,-6.14 -0.25,-14.56 -0.57,-27.2 -2.52,-98.4 -7.25,-114.73 -13.16,-125.86 a 135.07,135.07 0 0 0 -10.06,-15.84 c -5.27,-7.44 -10.25,-14.46 -14.57,-28.12 a 154.86,154.86 0 0 1 -6.23,-52.58 76.35,76.35 0 0 1 1.88,-14.85 69.59,69.59 0 0 0 1.72,-13.3 c 0.76,-14.73 -0.34,-37.13 -9.91,-60.14 A 124.76,124.76 0 0 0 622.77,1900 l -0.68,-1 c -35.93,-50.93 -10.18,-192.61 2.57,-251.16 19.22,-88.36 28.87,-132.7 32.62,-144.61 l 0.12,-0.38 a 175.55,175.55 0 0 0 8,-60.91 v -1.06 c -0.66,-19.06 3.51,-52.33 27.12,-102.59 10.75,-22.89 18.46,-32.21 24.09,-39 5.39,-6.52 8.95,-10.82 12,-23.41 3.18,-13.2 2.18,-20.67 0.36,-34.22 a 450.44,450.44 0 0 1 -4.35,-53.73 c -0.91,-34.32 -1.37,-51.54 3.8,-67.65 a 158,158 0 0 1 9.46,-22.41 205.93,205.93 0 0 0 14.5,-36.65 c 4.33,-14.81 6.5,-22.24 7.15,-32.84 0.94,-15.28 -2,-24.52 -4.74,-33.46 -2.74,-8.94 -5.67,-18.14 -4.54,-32.69 a 37.84,37.84 0 0 1 2.94,-12.93 c 1.67,-4.42 4.2,-11.11 8.08,-28.53 4.76,-21.31 7,-38.19 6.59,-50.18 a 61.16,61.16 0 0 0 -1.48,-12.75 149.93,149.93 0 0 1 -2.68,-18.67 c -2.6,-27.85 -0.74,-48.34 0.18,-55.86 a 212.34,212.34 0 0 1 6.12,-30.8 l 0.24,-0.88 c 11.21,-41.89 13.1,-98 15.1,-157.42 2.16,-63.87 3.24,-95.92 0.16,-115.25 -0.24,-1.48 -5.75,-36.79 -1.53,-64.34 0,-0.24 0.13,-0.86 0.27,-1.81 0.31,-2.09 0.84,-5.74 1.52,-10.26 0.55,-3.62 1.09,-7.59 1.66,-12.14 a 96.78,96.78 0 0 1 3.16,-16.21 c 4.66,-17 14.22,-18 14.63,-18 h 0.21 0.2 c 0.41,0 10,1 14.63,18 a 96.78,96.78 0 0 1 3.16,16.21 c 0.57,4.55 1.12,8.52 1.66,12.14 0.68,4.52 1.21,8.17 1.52,10.26 0.14,0.95 0.23,1.57 0.27,1.81 4.22,27.55 -1.29,62.86 -1.53,64.34 -3.07,19.33 -2,51.38 0.16,115.23 2,59.43 3.89,115.55 15.1,157.44 l 0.25,0.89 a 212.52,212.52 0 0 1 6.12,30.77 c 0.92,7.52 2.78,28 0.18,55.86 a 149.93,149.93 0 0 1 -2.68,18.67 61.16,61.16 0 0 0 -1.46,12.75 c -0.39,12 1.83,28.87 6.59,50.18 3.89,17.42 6.41,24.11 8.08,28.53 a 37.84,37.84 0 0 1 2.94,12.93 c 1.13,14.55 -1.75,23.77 -4.54,32.69 -2.79,8.92 -5.68,18.18 -4.74,33.46 0.65,10.6 2.82,18 7.15,32.84 a 205.93,205.93 0 0 0 14.5,36.65 158,158 0 0 1 9.46,22.41 c 5.17,16.11 4.71,33.34 3.8,67.65 a 451,451 0 0 1 -4.34,53.73 c -1.83,13.55 -2.83,21 0.35,34.22 3,12.59 6.58,16.89 12,23.41 5.63,6.81 13.34,16.13 24.09,39 23.61,50.26 27.78,83.53 27.12,102.59 v 1.06 a 176.27,176.27 0 0 0 8,60.91 l 0.12,0.38 c 3.75,11.91 13.39,56.23 32.61,144.53 12.76,58.63 38.51,200.31 2.58,251.24 l -0.68,1 a 124.76,124.76 0 0 0 -14.42,25.57 c -9.57,23 -10.67,45.41 -9.91,60.14 a 69.59,69.59 0 0 0 1.72,13.3 76.35,76.35 0 0 1 1.88,14.85 c 1.23,25.82 -3.94,45.37 -6.23,52.58 -4.32,13.66 -9.3,20.68 -14.57,28.12 a 135.07,135.07 0 0 0 -10.06,15.84 c -5.91,11.13 -10.64,27.46 -13.16,125.86 -0.32,12.64 -0.46,21.06 -0.57,27.2 -0.17,10.45 -0.26,15.7 -1,26.78 -1.42,22.34 -3.18,50.14 -10.67,80.89 a 194.78,194.78 0 0 1 -11.71,35 184.73,184.73 0 0 0 -8.24,22.34 c -11.18,37.9 -6.35,64 -1.23,91.71 5,27.17 10.23,55.26 1.62,97 -0.22,1.07 -0.46,2.2 -0.72,3.41 -2.21,10.42 -5.56,26.17 -5.67,47.68 -0.09,18.89 -0.2,42.41 11.27,63.24 7.9,14.35 17.14,19.6 28.84,26.23 7.92,4.5 16.89,9.59 27.25,18.4 29.25,24.86 51,64.52 55.42,101 2.73,22.6 -2.24,35.42 -9.75,54.82 A 411.26,411.26 0 0 0 978,2997.08 l -2.44,-0.55 2.44,0.55 a 527.2,527.2 0 0 0 -12.38,104.72 c -0.57,33.95 -1,117.51 7.45,159.86 l 0.05,0.22 a 63.55,63.55 0 0 1 0.36,24.89 c -2.51,13.09 -9.22,24.81 -21.1,36.9 -14,14.24 -26,19.92 -38.8,25.94 a 200,200 0 0 0 -21.34,11.21 c -5.61,3.48 -55.07,35.47 -63.65,84.92 -2.27,13.12 -0.25,19.28 2.3,27.06 2.72,8.28 6.1,18.58 4.7,40.15 -0.78,11.9 -2.52,20.29 -4.93,31.91 -2.6,12.49 -5.83,28 -9.52,55.43 -1.36,10.09 -2.3,18.05 -1.94,28.68 0.33,10 1.78,24.61 10.15,49.46 a 224.72,224.72 0 0 0 12.3,29.8 c 2.39,5 4.86,10.09 7.62,16.88 15.34,37.78 16.92,71.28 17.68,87.38 0.38,8 0.11,10.29 -1.19,21.18 -1.09,9.13 -2.92,24.39 -5.73,54.44 -5.76,61.53 -6,83 -1.45,109.39 a 226.53,226.53 0 0 0 7.49,32.4 242.36,242.36 0 0 0 9.15,23.88 c 3.54,8.31 7.55,17.73 12.4,32.32 3,8.91 4.44,13.37 5.54,18.8 2.53,12.4 2.16,20.91 1.77,29.93 -0.19,4.27 -0.38,8.68 -0.23,13.56 0.38,12.69 3,21.72 8.23,39.7 5.7,19.64 11.37,30.53 17.36,42.07 3.92,7.54 8,15.33 12.43,26.11 0.26,0.63 26.07,64.15 13.6,136.8 A 46,46 0 0 1 940,4410 c -4.36,7 -10.76,12.58 -20.14,17.6 -14.16,7.59 -27.4,9.85 -35.73,11.14 a 138.39,138.39 0 0 1 26,7.06 c 15,5.92 26,14.19 29.73,17.73 17.42,16.62 11.82,58.06 -16.64,123.15 -14.42,33 -31.21,63 -47.45,92.09 -21.92,39.23 -40.85,73.11 -48.7,104.72 -5.12,20.61 -4.65,36.79 -3.36,46.74 1.45,11.12 4.09,18.08 7.43,26.9 1.72,4.53 3.66,9.67 5.73,16.11 5.48,17 13,40.34 11.94,66.36 -0.7,17.56 -5.06,29.39 -8.91,39.83 -4.62,12.54 -8.61,23.38 -5.24,41.05 a 58.19,58.19 0 0 0 3,10.67 59.36,59.36 0 0 1 3.61,14.53 c 2.9,21.18 -1.06,40 -4.56,56.56 -1.49,7.06 -2.48,10.56 -3.53,14.27 -0.75,2.68 -1.54,5.46 -2.54,9.77 a 243.91,243.91 0 0 0 -6,61.15 z m -33.6,-5 h 28.49 a 247.9,247.9 0 0 1 6.18,-59.85 c 1,-4.42 1.83,-7.25 2.6,-10 1,-3.62 2,-7.05 3.45,-13.95 3.41,-16.18 7.28,-34.52 4.5,-54.84 a 54.71,54.71 0 0 0 -3.35,-13.48 62.23,62.23 0 0 1 -3.25,-11.46 c -3.63,-19 0.79,-31 5.46,-43.72 3.9,-10.59 7.94,-21.53 8.6,-38.3 1,-25.14 -6.34,-48 -11.7,-64.63 -2,-6.32 -4,-11.39 -5.65,-15.87 -3.45,-9.12 -6.18,-16.32 -7.71,-28 -1.35,-10.37 -1.84,-27.21 3.47,-48.59 8,-32.25 28,-68.05 49.19,-105.95 16.18,-28.95 32.9,-58.89 47.23,-91.65 34.29,-78.43 28.59,-107.21 17.77,-117.54 -2.79,-2.66 -13.27,-10.84 -28.12,-16.69 a 134.25,134.25 0 0 0 -25.35,-6.85 c -6.7,-1.27 -10.07,-1.9 -10,-5.07 0.07,-3.17 3.16,-3.61 9.38,-4.56 7.92,-1.22 21.18,-3.25 35.23,-10.77 8.7,-4.66 14.33,-9.55 18.26,-15.84 a 41.11,41.11 0 0 0 5.54,-15.14 c 12.22,-71.19 -13,-133.43 -13.29,-134 -4.38,-10.58 -8.38,-18.27 -12.24,-25.71 -6.12,-11.77 -11.89,-22.88 -17.73,-43 -5.35,-18.39 -8,-27.62 -8.43,-40.95 -0.16,-5.06 0,-9.57 0.23,-13.93 0.38,-8.7 0.74,-16.92 -1.66,-28.71 -1.05,-5.14 -2.5,-9.51 -5.39,-18.21 -4.79,-14.41 -8.76,-23.73 -12.26,-32 a 251.66,251.66 0 0 1 -9.32,-24.33 232.38,232.38 0 0 1 -7.65,-33.06 c -4.68,-26.91 -4.41,-48.64 1.4,-110.7 2.82,-30.12 4.65,-45.42 5.74,-54.57 1.29,-10.8 1.52,-12.74 1.16,-20.36 -0.74,-15.82 -2.29,-48.74 -17.31,-85.73 -2.7,-6.64 -5.14,-11.7 -7.5,-16.59 A 232.75,232.75 0 0 1 824.56,3680 c -8.57,-25.47 -10.07,-40.58 -10.41,-50.9 -0.37,-11 0.59,-19.18 2,-29.51 3.72,-27.57 7,-43.21 9.58,-55.78 2.37,-11.41 4.09,-19.66 4.84,-31.22 1.34,-20.6 -1.74,-30 -4.46,-38.26 -2.66,-8.11 -5,-15.12 -2.47,-29.48 9,-51.59 60.13,-84.71 65.93,-88.31 a 204.6,204.6 0 0 1 21.85,-11.48 c 12.34,-5.82 24,-11.32 37.36,-24.93 11.17,-11.35 17.44,-22.26 19.76,-34.33 a 58.37,58.37 0 0 0 -0.36,-23 v -0.22 c -8.54,-42.83 -8.12,-126.81 -7.55,-160.93 a 532.63,532.63 0 0 1 12.44,-105.65 415.89,415.89 0 0 1 20.39,-65.89 c 7.51,-19.36 12,-31.05 9.45,-52.41 -4.27,-35.35 -25.34,-73.75 -53.68,-97.84 -10,-8.51 -18.76,-13.47 -26.49,-17.86 -11.9,-6.75 -22.17,-12.57 -30.75,-28.17 -12.1,-22 -12,-46.2 -11.89,-65.68 0.11,-22 3.52,-38.07 5.78,-48.69 0.26,-1.2 0.5,-2.32 0.71,-3.38 8.41,-40.75 3.31,-68.36 -1.63,-95 -5.24,-28.28 -10.18,-55 1.34,-94 a 190,190 0 0 1 8.44,-22.88 190.21,190.21 0 0 0 11.45,-34.19 c 7.38,-30.33 9.13,-57.89 10.54,-80 0.69,-11 0.78,-16.17 1,-26.54 0.1,-6.16 0.24,-14.59 0.56,-27.25 2.56,-99.7 7.31,-116 13.75,-128.07 a 139,139 0 0 1 10.39,-16.39 c 5.26,-7.42 9.8,-13.83 13.89,-26.74 a 149.71,149.71 0 0 0 6,-50.83 72.06,72.06 0 0 0 -1.76,-14 73.82,73.82 0 0 1 -1.83,-14.1 c -0.79,-15.25 0.36,-38.44 10.28,-62.32 a 129.36,129.36 0 0 1 15,-26.56 l 0.65,-0.92 c 15.57,-22.06 20.72,-65.14 15.33,-128.06 -4.09,-47.75 -13.47,-95.15 -18.69,-119.16 -19.2,-88.23 -28.83,-132.48 -32.51,-144.17 l -0.12,-0.37 a 180.84,180.84 0 0 1 -8.25,-62.62 v -1 c 0.65,-18.51 -3.46,-50.94 -26.65,-100.29 -10.48,-22.32 -18,-31.36 -23.42,-38 -5.62,-6.8 -9.68,-11.71 -13,-25.42 -3.4,-14.11 -2.29,-22.37 -0.45,-36 a 447.21,447.21 0 0 0 4.3,-53.2 c 0.9,-33.75 1.35,-50.69 -3.56,-66 a 153.32,153.32 0 0 0 -9.2,-21.74 210.44,210.44 0 0 1 -14.8,-37.43 c -4.43,-15.17 -6.66,-22.79 -7.34,-33.94 -1,-16.2 2,-25.89 5,-35.26 2.77,-8.86 5.38,-17.23 4.32,-30.81 A 33.18,33.18 0 0 0 852.94,951 c -1.72,-4.55 -4.32,-11.43 -8.28,-29.2 -7.31,-32.73 -6.86,-46.81 -6.71,-51.43 a 66.48,66.48 0 0 1 1.58,-13.6 145.3,145.3 0 0 0 2.6,-18.13 c 2.56,-27.36 0.74,-47.43 -0.16,-54.78 a 208.12,208.12 0 0 0 -6,-30.08 l -0.25,-0.9 c -11.36,-42.44 -13.26,-98.84 -15.27,-158.54 -2.16,-64.19 -3.25,-96.4 -0.1,-116.2 0.06,-0.36 5.63,-36 1.52,-62.8 0,-0.24 -0.13,-0.88 -0.27,-1.85 -0.3,-2.08 -0.84,-5.73 -1.51,-10.24 -0.55,-3.65 -1.1,-7.66 -1.68,-12.25 a 92.93,92.93 0 0 0 -3,-15.51 c -3.25,-11.83 -8.78,-14 -10,-14.29 -1.17,0.32 -6.74,2.41 -10,14.29 a 92.93,92.93 0 0 0 -3,15.51 c -0.57,4.59 -1.12,8.59 -1.67,12.25 -0.68,4.51 -1.22,8.16 -1.52,10.24 -0.14,1 -0.24,1.61 -0.27,1.85 -4.11,26.76 1.46,62.44 1.52,62.8 3.15,19.8 2.06,52 -0.1,116.19 -2,59.71 -3.91,116.11 -15.27,158.55 l -0.24,0.89 a 207.94,207.94 0 0 0 -6,30.09 c -0.9,7.35 -2.72,27.42 -0.16,54.78 a 145.3,145.3 0 0 0 2.6,18.13 66.48,66.48 0 0 1 1.58,13.6 c 0.15,4.62 0.6,18.7 -6.71,51.43 -4,17.77 -6.56,24.65 -8.28,29.2 a 33.18,33.18 0 0 0 -2.63,11.56 c -1.06,13.58 1.55,21.95 4.32,30.81 2.93,9.37 6,19.06 5,35.26 -0.68,11.15 -2.91,18.77 -7.34,33.94 a 210.92,210.92 0 0 1 -14.8,37.44 152.68,152.68 0 0 0 -9.2,21.73 c -4.91,15.31 -4.46,32.25 -3.56,66 a 447.23,447.23 0 0 0 4.3,53.21 c 1.84,13.68 3,21.94 -0.44,36 -3.3,13.71 -7.36,18.62 -13,25.42 -5.46,6.61 -12.94,15.65 -23.42,38 -23.19,49.36 -27.3,81.78 -26.65,100.29 v 1 a 181.07,181.07 0 0 1 -0.31,21.21 178.81,178.81 0 0 1 -8,41.4 l -0.12,0.38 c -3.68,11.69 -13.31,56 -32.5,144.15 -5.23,24 -14.61,71.43 -18.7,119.18 -5.39,62.92 -0.24,106 15.33,128.06 l 0.65,0.92 a 129.36,129.36 0 0 1 15,26.56 c 9.92,23.88 11.07,47.07 10.28,62.32 a 73.7,73.7 0 0 1 -1.83,14.1 72.06,72.06 0 0 0 -1.76,14 149.76,149.76 0 0 0 6,50.83 c 4.09,12.91 8.63,19.32 13.89,26.74 a 140.25,140.25 0 0 1 10.4,16.39 c 6.43,12.1 11.18,28.37 13.74,128.07 0.32,12.66 0.46,21.09 0.57,27.25 0.17,10.37 0.26,15.58 0.95,26.54 1.41,22.14 3.16,49.7 10.54,80 a 190.21,190.21 0 0 0 11.4,34.33 190,190 0 0 1 8.44,22.88 c 11.52,39.05 6.58,65.76 1.34,94 -4.94,26.69 -10,54.3 -1.63,95 0.21,1.06 0.45,2.18 0.71,3.38 2.26,10.62 5.67,26.67 5.78,48.69 0.09,19.48 0.21,43.71 -11.89,65.68 -8.58,15.6 -18.85,21.42 -30.75,28.17 -7.73,4.39 -16.48,9.35 -26.49,17.86 -28.33,24.09 -49.41,62.49 -53.68,97.84 -2.59,21.36 1.94,33.05 9.45,52.41 a 415.89,415.89 0 0 1 20.42,66 532.63,532.63 0 0 1 12.5,105.73 c 0.57,34.13 1,118.11 -7.55,160.93 v 0.22 a 58.37,58.37 0 0 0 -0.36,23 c 2.32,12.07 8.6,23 19.76,34.33 13.37,13.61 25,19.11 37.36,24.93 a 204.6,204.6 0 0 1 21.85,11.48 c 5.8,3.6 57,36.72 65.93,88.31 2.49,14.36 0.19,21.37 -2.47,29.48 -2.72,8.28 -5.8,17.66 -4.46,38.26 0.75,11.56 2.47,19.81 4.84,31.22 2.61,12.57 5.86,28.21 9.58,55.78 1.39,10.33 2.35,18.5 2,29.51 -0.34,10.32 -1.84,25.43 -10.41,50.9 a 232.75,232.75 0 0 1 -12.53,30.37 c -2.36,4.89 -4.8,9.95 -7.5,16.59 -15,37 -16.57,69.91 -17.31,85.73 -0.36,7.61 -0.13,9.56 1.16,20.36 1.09,9.14 2.92,24.45 5.74,54.57 5.81,62.06 6.08,83.79 1.4,110.7 a 231,231 0 0 1 -7.65,33.06 251.66,251.66 0 0 1 -9.32,24.33 c -3.5,8.22 -7.47,17.54 -12.25,31.94 -2.9,8.71 -4.35,13.08 -5.39,18.22 -2.41,11.79 -2,20 -1.67,28.71 0.19,4.36 0.39,8.87 0.23,13.93 -0.4,13.33 -3.08,22.56 -8.43,40.95 -5.84,20.1 -11.61,31.21 -17.73,43 -3.86,7.44 -7.86,15.13 -12.24,25.71 -0.26,0.62 -25.51,62.86 -13.29,134 a 41.27,41.27 0 0 0 5.54,15.15 c 3.93,6.29 9.56,11.18 18.26,15.84 14,7.52 27.31,9.55 35.23,10.77 6.22,1 9.34,1.43 9.38,4.56 0.04,3.13 -3.32,3.8 -10,5.07 a 134.25,134.25 0 0 0 -25.35,6.85 c -14.85,5.85 -25.33,14 -28.12,16.69 -10.82,10.33 -16.52,39.11 17.77,117.54 14.33,32.76 31.06,62.69 47.23,91.65 21.18,37.9 41.18,73.7 49.2,105.95 5.3,21.38 4.81,38.22 3.46,48.59 -1.53,11.71 -4.26,18.91 -7.71,28 -1.7,4.48 -3.62,9.55 -5.65,15.87 -5.36,16.67 -12.7,39.49 -11.7,64.63 0.67,16.77 4.7,27.71 8.6,38.3 4.68,12.69 9.09,24.68 5.46,43.72 a 62.23,62.23 0 0 1 -3.25,11.46 54.71,54.71 0 0 0 -3.35,13.48 c -2.78,20.32 1.09,38.66 4.5,54.84 1.46,6.9 2.42,10.33 3.45,13.95 0.77,2.74 1.57,5.57 2.6,10 a 247.4,247.4 0 0 1 6.1,59.84 z"
           id="path23" />
      </g>
    </g>
  </g>
</svg>
