<svg data-name="Kopřivald logo" viewBox="0 0 1351.3757 1610.9022" version="1.1" width="1351.3757" height="1610.9022" xmlns="http://www.w3.org/2000/svg">
  <defs id="defs4">
    <style id="style2">.cls-1{fill:#1d745e;}</style>
  </defs>
  <path
     class="cls-1"
     d="m 316.29564,966.04049 c -13.44,-4.62 -32.89,-52.76 -38.38,-67.14 -45.78,-128.82 -18.11,-302.88 58.92,-415 8.19,-10.26 34.87,-49.92 48.54,-39.72 3.38,9.42 -12.88,19.85 -17.17,28.1 a 388.56,388.56 0 0 0 -35.19,62.55 575.93,575.93 0 0 0 -48,246.29 c 1.88,49.16 12.86,97.81 35.78,140.7 4.51,7.74 8.15,15.91 12.3,23.82 6.16,10.63 -5.18,24.42 -16.8,20.4 z"
     id="path6" />
  <path
     class="cls-1"
     d="m 442.04564,600.68049 c -1.32,-1.64 -3.32,-2 -5.13,-2.9 -4.93,-2.47 -8.2,-7.11 -11.91,-11 -25.74,-28.47 -43.39,-64.14 -51.27,-101.65 -1.5,-9.73 -5.24,-26.18 0.28,-34.61 4.85,-7.26 10.53,-5.81 14.74,1.22 2.15,3.52 2.32,7.71 3.26,11.63 1.49,6.4 3.38,12.66 5.5,18.88 11.24,30.65 27.68,59.57 49.68,83.78 4.31,4.91 9.78,9.27 11.22,16 2.49,2.72 4.59,5.77 4.6,9.6 0.55,10.68 -13.45,16.72 -20.97,9.05 z"
     id="path8" />
  <path
     class="cls-1"
     d="m 435.58564,589.15049 c -5.13,-19.62 -10.34,-39.34 -12.13,-59.61 -2.57,-32.35 -2.65,-65.16 3.19,-97.18 5.83,-32.51 17,-63.79 30.17,-94 8.49,-19.66 17.11,-39.47 29.43,-57.09 7.61,-10.8 15.37,-21.71 24.15,-31.67 l 1.21,-1.24 c 1.57,-1.62 3.1,-3.28 4.66,-4.91 v 0 0 0 0 0 a 1.7,1.7 0 0 1 0.19,-0.19 l 0.23,-0.24 v 0 l 0.07,-0.07 v 0 -0.05 0 c 0,0 0,0 0,0 v 0 0 l 0.19,-0.19 0.24,-0.24 v 0 l 0.24,-0.24 v 0 0 l 0.09,-0.09 -0.09,0.09 v 0 0 0 0 l -0.12,0.12 c 1.41,-1.38 2.78,-2.79 4.2,-4.16 0.73,-0.71 1.48,-1.4 2.22,-2.1 q 2.52,-2.22 5.17,-4.32 c 4.47,-3.33 9.14,-7 14.6,-8.42 1.63,-0.12 4,0.21 4.63,2 1.12,3.19 -1.63,5.8 -3.44,8.08 a 348.1,348.1 0 0 0 -47.31,77.42 c -6.08,14.34 -11.3,29 -16.69,43.64 -13.33,35.48 -24.74,72.16 -27.38,110.16 -1.84,33.35 -1.38,67.43 7.47,99.82 1.36,5.7 2.68,11.4 4.07,17.09 a 15.4,15.4 0 0 1 -1.61,11.52 14.7,14.7 0 0 1 -12.95,7.41 15.1,15.1 0 0 1 -14.7,-11.34 z"
     id="path10" />
  <path
     class="cls-1"
     d="m 516.49564,243.24049 -0.15,0.16 v 0 z"
     id="path12" />
  <path
     class="cls-1"
     d="m 594.72564,378.31049 c -37.36,-24 -59.72,-67.51 -61.33,-111.52 -0.64,-15.27 0.57,-31.32 8.05,-44.95 a 10.71,10.71 0 0 1 0.9,-1.55 c 0.56,-0.44 1.13,-0.87 1.7,-1.29 0.57,-0.42 1.15,-0.83 1.77,-1.19 a 2.89,2.89 0 0 0 1.46,-1.69 l 1,-0.76 c 3.91,-1.81 8.27,-1.62 10.19,3.12 2.75,5.11 1.11,10.73 0.54,16.15 a 112.1,112.1 0 0 0 -0.07,11.88 c 1.4,21.53 5.55,43.18 15,62.68 a 123.09,123.09 0 0 0 16,24.86 c 6.76,7.87 15.19,13.93 23.1,20.51 10.05,10.51 1.39,25.87 -10.68,25.88 a 15.74,15.74 0 0 1 -7.63,-2.13 z"
     id="path14" />
  <path
     class="cls-1"
     d="m 601.83564,377.35049 a 14.87,14.87 0 0 1 -7,-9.27 c -3.92,-18.42 -4.51,-37.39 -3.47,-56.14 1.7,-42.56 11.83,-84.32 26.17,-124.29 14.44,-42.36 33.27,-83.72 60.93,-119.17 18.93,-23.68 38.42,-48.76 65.6,-63.3299998 6.44,-3.16 14.33,-7.75 21.24,-3.31 3.6,2 2.47,5.15 0.54,7.63 -4.64,6.3599998 -13,8.5099998 -18.46,14.0899998 -18,15.9 -31.86,35.9 -45.35,55.6 l 0.64,-1 c -36.94,54.75 -59,118.23 -74,182.19 -6,32.38 -10,66.08 -4.7,98.8 4.44,13.13 -10.19,25.47 -22.14,18.2 z"
     id="path16" />
  <path
     class="cls-1"
     d="m 515.92564,258.91049 c -4.79,-4 1.19,-8.91 3,-12.82 a 82.93,82.93 0 0 1 20.22,-21.87 c 3.11,-2.39 6.34,-4.78 10.4,-5 1.22,-0.12 2.92,-0.56 3.94,0.22 -1.69,3.4 -3.14,6.88 -6.13,9.31 a 247.33,247.33 0 0 0 -17.8,20.35 c -2.36,3 -4.82,5.86 -7,9 a 4.77,4.77 0 0 1 -6.63,0.81 z"
     id="path18" />
  <path
     class="cls-1"
     d="m 527.42564,245.64049 a 5.26,5.26 0 0 1 -0.47,-7.74 27.81,27.81 0 0 1 6.67,-8.78 c 4,-3.63 8.19,-7.1 13.18,-9.23 2.84,-1.61 5.88,-2.7 8.6,-0.66 0,0 0,0 0,0 v 0 a 0.72,0.72 0 0 0 -0.2,0.44 6.94,6.94 0 0 1 -1.94,4.68 c -3.11,3.69 -6.06,7.51 -9.31,11.08 -2.87,3.24 -5.45,6.8 -9.16,9.14 a 5.29,5.29 0 0 1 -7.37,1.07 z"
     id="path20" />
  <path
     class="cls-1"
     d="m 555.32564,227.37049 c -0.4,-0.33 -1.08,-0.78 -1.19,-1.28 0,0 0,0 0,0 v 0 a 5.59,5.59 0 0 1 1.19,1.28 z"
     id="path22" />
  <path
     class="cls-1"
     d="m 521.60564,250.71049 a 59.59,59.59 0 0 1 13.48,-23.86 17.67,17.67 0 0 1 7.43,-4.7 c 3.38,-1.5 7,-2.91 10.68,-3.12 a 4.54,4.54 0 0 1 2.22,0.84 4.64,4.64 0 0 0 -2.63,-0.17 c -6,2.59 -12.15,5.68 -16.41,10.75 -5.22,6.49 -10.67,13.06 -14.77,20.26 z"
     id="path24" />
  <path
     class="cls-1"
     d="m 547.41564,222.98049 c 0,0 0.22,0 0.17,0 -0.05,0 -0.2,0.05 -0.17,0 z"
     id="path26" />
  <path
     class="cls-1"
     d="m 530.65564,233.31049 a 40.4,40.4 0 0 1 19.55,-16.63 c 0.69,-0.26 2.23,-0.95 2.64,-0.53 -0.21,-0.11 -0.55,0.1 -0.78,0.19 a 82.71,82.71 0 0 0 -8.69,6.44 152.17,152.17 0 0 0 -12.72,10.53 z"
     id="path28" />
  <path
     class="cls-1"
     d="m 526.13564,233.92049 0.34,-0.32 -0.14,0.13 v 0.05 -0.05 l 0.29,-0.27 a 0.86,0.86 0 0 1 -0.14,0.13 l 0.17,-0.15 h 0.05 l -0.08,0.06 0.1,-0.09 v 0 0 0 0 l -0.06,0.05 v 0 l 0.06,-0.06 v 0 0 0 0 0 0 0 0 l 0.06,-0.05 h 0.05 v 0 0 l 0.1,-0.09 0.15,-0.14 c 3.25,-2.92 6.62,-5.7 10,-8.48 l -0.07,0.06 v 0 0 0 l -0.14,0.12 0.12,-0.1 v 0 l 0.08,-0.06 v 0 0 0 0 c 2.27,-1.87 4.54,-3.75 6.91,-5.5 0.5,-0.36 1,-0.73 1.54,-1.05 1.35,-0.69 2.72,-1.31 4.12,-1.86 0.66,-0.21 1.57,-0.73 2.24,-0.53 -7.73,4.22 -13.82,11.19 -20.16,17.26 -5.48,6 -11.73,11.67 -15.91,18.66 1.97,-6.77 6.08,-12.38 10.32,-17.72 z"
     id="path30" />
  <path
     class="cls-1"
     d="m 386.32564,450.70049 c -0.7,-2.12 -1,-5.12 -3.32,-6 -0.19,0 -0.41,-0.06 -0.53,0 v 0 c 0,0 0,0 0,0 0.22,-0.46 1.11,-0.24 1.5,-0.05 2.15,1.14 2.46,3.95 2.35,6.05 z"
     id="path32" />
  <path
     class="cls-1"
     d="m 389.47564,456.89049 c -1.27,-2.34 -1.16,-5.25 -2.52,-7.49 a 16.48,16.48 0 0 1 -2.07,-3.91 c -0.43,-0.68 -1.4,-1.29 -2.07,-0.8 v 0 c 0,0 0,0 0,0 0,0 0.2,-0.25 0.24,-0.27 a 1.73,1.73 0 0 1 1.73,0.12 c 1,0.53 1.25,1.49 1.79,2.29 a 26.28,26.28 0 0 1 1.82,2.51 c 0.97,2.36 0.65,5.14 1.08,7.55 z"
     id="path34" />
  <path
     class="cls-1"
     d="m 389.72564,458.43049 c -1.53,-4.46 -1.31,-9.15 -4.37,-13 a 3.27,3.27 0 0 0 -2.15,-1.57 v 0 c 1.49,-0.52 3.19,1.56 4.12,2.7 2.88,3.23 2.18,7.99 2.4,11.87 z"
     id="path36" />
  <path
     class="cls-1"
     d="m 390.35564,458.88049 v 0 a 45.57,45.57 0 0 0 -3.45,-10.77 7,7 0 0 0 -5,-4.5 9.37,9.37 0 0 0 -1.94,-0.15 c 8.53,-2.55 11.13,9.3 10.39,15.42 z"
     id="path38" />
  <path
     class="cls-1"
     d="m 528.92564,231.43049 c 2.72,-2.37 5.5,-4.66 8.28,-7 l -0.07,0.06 v 0 0 0 l -0.14,0.12 0.12,-0.1 v 0 l 0.08,-0.06 v 0 0 0 0 c 1.81,-1.49 3.62,-3 5.48,-4.42 a 25.22,25.22 0 0 1 9.37,-3.24 c -6.83,2.74 -12,8.19 -17.39,13 -4.51,4 -9.35,7.83 -13.23,12.38 a 53.54,53.54 0 0 1 7.5,-10.74 z"
     id="path40" />
  <path
     class="cls-1"
     d="m 537.33564,224.34049 c 2.2,-1.81 4.41,-3.64 6.71,-5.34 l 0.89,-0.63 a 23.88,23.88 0 0 1 5,-1.93 145.3,145.3 0 0 0 -14.37,10.34 18.5,18.5 0 0 1 1.77,-2.44 z"
     id="path42" />
  <path
     class="cls-1"
     d="m 539.20564,222.80049 c 1.59,-1.3 3.19,-2.58 4.84,-3.8 a 19.44,19.44 0 0 1 1.77,-1.18 4.45,4.45 0 0 0 0.51,-0.33 15.59,15.59 0 0 1 1.65,-0.48 c 0.06,0 0.24,0 0.21,0.08 -0.03,0.08 -0.34,0.2 -0.17,0 a 66.42,66.42 0 0 0 -10,7.39 20.62,20.62 0 0 1 1.19,-1.68 z"
     id="path44" />
  <path
     class="cls-1"
     d="m 540.27564,221.93049 c 1.24,-1 2.49,-2 3.77,-2.93 a 20.77,20.77 0 0 1 1.76,-1.18 2.86,2.86 0 0 0 1.35,-1.4 10.35,10.35 0 0 1 4.51,-1 c -5,1.67 -9,5.5 -13,8.72 a 21.21,21.21 0 0 1 1.61,-2.21 z"
     id="path46" />
  <path
     class="cls-1"
     d="m 535.58564,225.78049 1.62,-1.34 -0.09,0.08 v 0 0 0 0 l -0.08,0.07 0.08,-0.07 v 0 0 l 0.09,-0.07 v 0 c 2.29,-1.89 4.57,-3.79 7,-5.55 a 19.44,19.44 0 0 1 1.77,-1.18 3,3 0 0 0 1.11,-1 18.61,18.61 0 0 1 1.91,-0.64 c -5.54,3.68 -10.52,8.54 -15.5,12.85 a 34.6,34.6 0 0 1 2.09,-3.15 z"
     id="path48" />
  <path
     class="cls-1"
     d="m 517.66564,242.07049 v -0.05 0.05 0 c 1.33,-1.31 2.64,-2.65 4,-3.95 1.58,-1.52 3.21,-3 4.81,-4.51 l -0.19,0.18 0.35,-0.32 -0.15,0.13 0.21,-0.19 a 0.3,0.3 0 0 0 0.08,-0.08 v 0 0 0 0 0 0 0 a 0.27,0.27 0 0 0 0.08,-0.07 h -0.05 l 0.07,-0.06 0.09,-0.09 0.11,-0.1 h 0.06 v 0 0 c 3.25,-2.92 6.62,-5.7 10,-8.48 l -0.09,0.08 v 0 0 l -0.06,0.05 -0.09,0.07 0.09,-0.07 v 0 c 0,0 0,0 0,0.05 l 0.08,-0.07 v 0 c 1.24,-1 2.49,-2.06 3.75,-3.07 a 50.34,50.34 0 0 1 5.79,-2.33 c 0.18,-0.08 3.14,-1 3,-0.42 0,0 0,-0.07 -0.06,-0.09 -0.34,-0.07 -0.69,0.21 -1,0.32 -6.1,3.29 -11.69,8 -17,12.3 -6.09,5.43 -12.07,10.65 -17.32,16.73 a 60.07,60.07 0 0 1 3.44,-6.01 z"
     id="path50" />
  <path
     class="cls-1"
     d="m 526.78564,233.34049 v 0 0 0 -0.05 0 0 0 0 a 0.3,0.3 0 0 1 -0.08,0.08 z"
     id="path52" />
  <path
     class="cls-1"
     d="m 527.18564,232.95049 v 0 0 l -0.07,0.06 z"
     id="path54" />
  <path
     class="cls-1"
     d="m 545.01564,220.27049 c 1.62,-2.3 4.68,-3.93 7.39,-3.09 -2.69,0.09 -5.29,1.58 -7.39,3.09 z"
     id="path56" />
  <path
     class="cls-1"
     d="m 543.04564,220.69049 c 1.39,-1.95 3.81,-4.8 6.27,-4.3 h -0.06 c -2.47,0.56 -4.17,3.04 -6.21,4.3 z"
     id="path58" />
  <path
     class="cls-1"
     d="m 540.97564,223.02049 a 16.44,16.44 0 0 1 3.44,-4.6 c 1.36,-1.38 3,-3.11 5.18,-2.63 0.27,0.05 0.91,0.07 1.06,0.36 0,0.12 -0.06,0 -0.11,0 -2,-0.39 -3.56,1 -4.78,2.43 -1.64,1.47 -3.35,2.85 -4.79,4.44 z"
     id="path60" />
  <path
     class="cls-1"
     d="m 539.33564,224.51049 c 2.11,-3.84 7.43,-11.38 12.32,-8.84 -1.93,-0.51 -3.83,0.71 -5.2,2 -2.38,2.21 -4.86,4.55 -7.12,6.84 z"
     id="path62" />
  <path
     class="cls-1"
     d="m 1201.4056,966.04049 c 13.45,-4.62 32.9,-52.76 38.38,-67.14 45.78,-128.82 18.11,-302.88 -58.92,-415 -8.19,-10.26 -34.87,-49.92 -48.54,-39.72 -3.38,9.42 12.88,19.85 17.18,28.1 a 388.51,388.51 0 0 1 35.18,62.55 575.93,575.93 0 0 1 48,246.29 c -1.88,49.16 -12.86,97.81 -35.78,140.7 -4.51,7.74 -8.15,15.91 -12.29,23.82 -6.17,10.63 5.17,24.42 16.79,20.4 z"
     id="path64" />
  <path
     class="cls-1"
     d="m 1075.6656,600.68049 c 1.32,-1.64 3.31,-2 5.12,-2.9 4.93,-2.47 8.21,-7.11 11.91,-11 25.74,-28.47 43.4,-64.14 51.27,-101.65 1.51,-9.73 5.24,-26.18 -0.28,-34.61 -4.85,-7.26 -10.53,-5.81 -14.74,1.22 -2.15,3.52 -2.32,7.71 -3.26,11.63 -1.49,6.4 -3.38,12.66 -5.5,18.88 -11.24,30.65 -27.68,59.57 -49.68,83.78 -4.31,4.91 -9.78,9.27 -11.22,16 -2.49,2.72 -4.59,5.77 -4.6,9.6 -0.55,10.68 13.45,16.72 20.98,9.05 z"
     id="path66" />
  <path
     class="cls-1"
     d="m 1082.1156,589.15049 c 5.13,-19.62 10.34,-39.34 12.13,-59.61 2.57,-32.35 2.65,-65.16 -3.18,-97.18 -5.84,-32.51 -17,-63.79 -30.18,-94 -8.49,-19.66 -17.11,-39.47 -29.43,-57.09 -7.61,-10.8 -15.37,-21.71 -24.15,-31.67 -0.4,-0.41 -0.8,-0.83 -1.21,-1.24 -1.57,-1.62 -3.1,-3.28 -4.66,-4.91 v 0 0 0 0 0 l -0.18,-0.19 c -0.09,-0.08 -0.16,-0.16 -0.24,-0.24 v 0 a 0.46,0.46 0 0 0 -0.07,-0.07 v 0 l -0.05,-0.05 v 0 c 0,0 0,0 0,0 v 0 0 l -0.19,-0.19 -0.24,-0.24 v 0 l -0.24,-0.24 v 0 0 l -0.09,-0.09 0.09,0.09 v 0 0 0 0 l 0.13,0.12 c -1.40996,-1.38 -2.78996,-2.79 -4.20996,-4.16 -0.73,-0.71 -1.47,-1.4 -2.22,-2.1 q -2.52,-2.22 -5.17,-4.32 c -4.47,-3.33 -9.14,-7 -14.6,-8.42 -1.62,-0.12 -4,0.21 -4.63,2 -1.12,3.19 1.63,5.8 3.44,8.08 a 348.1,348.1 0 0 1 47.30996,77.42 c 6.08,14.34 11.3,29 16.69,43.64 13.34,35.48 24.74,72.16 27.38,110.16 1.84,33.35 1.38,67.43 -7.47,99.82 -1.36,5.7 -2.68,11.4 -4.07,17.09 a 15.45,15.45 0 0 0 1.61,11.52 14.7,14.7 0 0 0 13,7.41 15.1,15.1 0 0 0 14.7,-11.34 z"
     id="path68" />
  <path
     class="cls-1"
     d="m 1001.2056,243.24049 0.15,0.16 v 0 z"
     id="path70" />
  <path
     class="cls-1"
     d="m 922.98564,378.31049 c 37.35,-24 59.71,-67.51 61.32,-111.52 0.64,-15.27 -0.57,-31.32 -8,-44.95 a 10.71,10.71 0 0 0 -0.9,-1.55 c -0.56,-0.44 -1.13,-0.87 -1.7,-1.29 -0.57,-0.42 -1.15,-0.83 -1.76,-1.19 a 2.87,2.87 0 0 1 -1.47,-1.69 l -1,-0.76 c -3.92,-1.81 -8.28,-1.62 -10.2,3.12 -2.75,5.11 -1.11,10.73 -0.53,16.15 a 114.82,114.82 0 0 1 0.06,11.88 c -1.4,21.53 -5.55,43.18 -15,62.68 a 123.09,123.09 0 0 1 -16.05,24.86 c -6.76,7.87 -15.19,13.93 -23.09,20.51 -10.06,10.51 -1.4,25.87 10.67,25.88 a 15.78,15.78 0 0 0 7.65,-2.13 z"
     id="path72" />
  <path
     class="cls-1"
     d="m 915.86564,377.35049 a 14.83,14.83 0 0 0 7,-9.27 c 3.93,-18.42 4.51,-37.39 3.47,-56.14 -1.7,-42.56 -11.83,-84.32 -26.17,-124.29 -14.44,-42.36 -33.27,-83.72 -60.92,-119.17 -18.93,-23.68 -38.43,-48.76 -65.61,-63.3299998 -6.44,-3.16 -14.33,-7.75 -21.23,-3.31 -3.61,2 -2.48,5.15 -0.55,7.63 4.64,6.3599998 13,8.5099998 18.47,14.0899998 18,15.9 31.86,35.9 45.34,55.6 l -0.64,-1 c 36.94,54.75 59,118.23 74,182.19 6,32.38 10,66.08 4.7,98.8 -4.44,13.13 10.16,25.47 22.14,18.2 z"
     id="path74" />
  <path
     class="cls-1"
     d="m 1001.7856,258.91049 c 4.78,-4 -1.2,-8.91 -2.99996,-12.82 a 83.06,83.06 0 0 0 -20.21,-21.87 c -3.11,-2.39 -6.35,-4.78 -10.41,-5 -1.22,-0.12 -2.92,-0.56 -3.93,0.22 1.68,3.4 3.13,6.88 6.12,9.31 a 247.33,247.33 0 0 1 17.8,20.35 c 2.37,3 4.83,5.86 7,9 a 4.78,4.78 0 0 0 6.62996,0.81 z"
     id="path76" />
  <path
     class="cls-1"
     d="m 990.27564,245.64049 a 5.26,5.26 0 0 0 0.47,-7.74 27.78,27.78 0 0 0 -6.66,-8.78 c -4,-3.63 -8.2,-7.1 -13.19,-9.23 -2.84,-1.61 -5.88,-2.7 -8.6,-0.66 v 0 a 0.77,0.77 0 0 1 0.19,0.44 6.94,6.94 0 0 0 1.94,4.68 c 3.11,3.69 6.06,7.51 9.31,11.08 2.87,3.24 5.45,6.8 9.16,9.14 a 5.29,5.29 0 0 0 7.38,1.07 z"
     id="path78" />
  <path
     class="cls-1"
     d="m 962.37564,227.37049 c 0.41,-0.33 1.08,-0.78 1.19,-1.28 0,0 0,0 0,0 v 0 a 5.82,5.82 0 0 0 -1.19,1.28 z"
     id="path80" />
  <path
     class="cls-1"
     d="m 996.09564,250.71049 a 59.59,59.59 0 0 0 -13.48,-23.86 17.67,17.67 0 0 0 -7.43,-4.7 c -3.38,-1.5 -7,-2.91 -10.68,-3.12 a 4.54,4.54 0 0 0 -2.22,0.84 4.64,4.64 0 0 1 2.63,-0.17 c 6,2.59 12.15,5.68 16.42,10.75 5.21,6.49 10.67,13.06 14.76,20.26 z"
     id="path82" />
  <path
     class="cls-1"
     d="m 970.28564,222.98049 c 0,0 -0.21,0 -0.17,0 0.04,0 0.2,0.05 0.17,0 z"
     id="path84" />
  <path
     class="cls-1"
     d="m 987.04564,233.31049 a 40.4,40.4 0 0 0 -19.55,-16.63 c -0.68,-0.26 -2.23,-0.95 -2.64,-0.53 0.21,-0.11 0.55,0.1 0.78,0.19 a 82.71,82.71 0 0 1 8.69,6.44 152.17,152.17 0 0 1 12.72,10.53 z"
     id="path86" />
  <path
     class="cls-1"
     d="m 991.57564,233.92049 -0.35,-0.32 0.14,0.13 0.05,0.05 -0.05,-0.05 -0.29,-0.27 a 0.86,0.86 0 0 0 0.14,0.13 l -0.16,-0.15 h -0.06 l 0.08,0.06 -0.1,-0.09 v 0 0 0 0 l 0.06,0.05 v 0 l -0.07,-0.06 v 0 0 0 0 0 0 0 0 0 l -0.06,-0.05 v 0 0 0 l -0.1,-0.09 -0.15,-0.14 c -3.25,-2.92 -6.62,-5.7 -10,-8.48 l 0.07,0.06 v 0 0 0 l 0.14,0.12 -0.12,-0.1 v 0 l -0.07,-0.06 v 0 0 0 0 c -2.27,-1.87 -4.54,-3.75 -6.91,-5.5 -0.5,-0.36 -1,-0.73 -1.54,-1.05 a 44.76,44.76 0 0 0 -4.12,-1.86 c -0.66,-0.21 -1.56,-0.73 -2.24,-0.53 7.73,4.22 13.82,11.19 20.16,17.26 5.48,6 11.73,11.67 15.90996,18.66 -2.02996,-6.77 -6.14996,-12.38 -10.35996,-17.72 z"
     id="path88" />
  <path
     class="cls-1"
     d="m 1131.3856,450.70049 c 0.69,-2.12 1,-5.12 3.31,-6 0.19,0 0.42,-0.06 0.53,0 v 0 c 0,0 0,0 0,0 -0.22,-0.46 -1.11,-0.24 -1.49,-0.05 -2.16,1.14 -2.47,3.95 -2.35,6.05 z"
     id="path90" />
  <path
     class="cls-1"
     d="m 1128.2256,456.89049 c 1.27,-2.34 1.16,-5.25 2.52,-7.49 a 16.89,16.89 0 0 0 2.08,-3.91 c 0.42,-0.68 1.39,-1.29 2.07,-0.8 v 0 c 0,0 0,0 0,0 0,0 -0.2,-0.25 -0.24,-0.27 a 1.73,1.73 0 0 0 -1.73,0.12 c -1,0.53 -1.25,1.49 -1.79,2.29 a 26.28,26.28 0 0 0 -1.82,2.51 c -0.98,2.36 -0.66,5.14 -1.09,7.55 z"
     id="path92" />
  <path
     class="cls-1"
     d="m 1127.9856,458.43049 c 1.52,-4.46 1.3,-9.15 4.36,-13 a 3.27,3.27 0 0 1 2.15,-1.57 v 0 c -1.48,-0.52 -3.19,1.56 -4.12,2.7 -2.88,3.23 -2.18,7.99 -2.39,11.87 z"
     id="path94" />
  <path
     class="cls-1"
     d="m 1127.3456,458.88049 v 0 a 45.57,45.57 0 0 1 3.45,-10.77 7.07,7.07 0 0 1 5,-4.5 9.42,9.42 0 0 1 1.99,-0.18 c -8.58,-2.52 -11.18,9.33 -10.44,15.45 z"
     id="path96" />
  <path
     class="cls-1"
     d="m 988.78564,231.43049 c -2.71,-2.37 -5.5,-4.66 -8.28,-7 l 0.07,0.06 v 0 0 0 l 0.14,0.12 -0.12,-0.1 v 0 l -0.07,-0.06 v 0 0 0 0 c -1.81,-1.49 -3.62,-3 -5.48,-4.42 a 25.24,25.24 0 0 0 -9.36,-3.24 c 6.82,2.74 12,8.19 17.39,13 4.5,4 9.34,7.83 13.23,12.38 a 53.62,53.62 0 0 0 -7.52,-10.74 z"
     id="path98" />
  <path
     class="cls-1"
     d="m 980.37564,224.34049 c -2.21,-1.81 -4.42,-3.64 -6.72,-5.34 l -0.89,-0.63 a 24,24 0 0 0 -5,-1.93 144,144 0 0 1 14.36,10.34 19.39,19.39 0 0 0 -1.75,-2.44 z"
     id="path100" />
  <path
     class="cls-1"
     d="m 978.49564,222.80049 c -1.59,-1.3 -3.19,-2.58 -4.84,-3.8 a 20.77,20.77 0 0 0 -1.76,-1.18 3.84,3.84 0 0 1 -0.52,-0.33 14.93,14.93 0 0 0 -1.65,-0.48 c -0.06,0 -0.24,0 -0.21,0.08 0.03,0.08 0.34,0.2 0.17,0 a 66.42,66.42 0 0 1 10,7.39 18.52,18.52 0 0 0 -1.19,-1.68 z"
     id="path102" />
  <path
     class="cls-1"
     d="m 977.42564,221.93049 c -1.24,-1 -2.49,-2 -3.77,-2.93 a 20.77,20.77 0 0 0 -1.76,-1.18 2.86,2.86 0 0 1 -1.35,-1.4 10.35,10.35 0 0 0 -4.51,-1 c 5,1.67 9,5.5 13,8.72 a 21.21,21.21 0 0 0 -1.61,-2.21 z"
     id="path104" />
  <path
     class="cls-1"
     d="m 982.11564,225.78049 -1.62,-1.34 0.09,0.08 v 0 0 0 0 l 0.09,0.07 -0.09,-0.07 v 0 0 l -0.09,-0.07 v 0 c -2.29,-1.89 -4.57,-3.79 -7,-5.55 a 19.44,19.44 0 0 0 -1.77,-1.18 3,3 0 0 1 -1.11,-1 19.28,19.28 0 0 0 -1.9,-0.64 c 5.53,3.68 10.51,8.54 15.49,12.85 a 34.6,34.6 0 0 0 -2.09,-3.15 z"
     id="path106" />
  <path
     class="cls-1"
     d="m 1000.0356,242.07049 v -0.05 0.05 0 c -1.32996,-1.31 -2.63996,-2.65 -3.99996,-3.95 -1.58,-1.52 -3.21,-3 -4.81,-4.51 l 0.19,0.18 -0.34,-0.32 a 0.86,0.86 0 0 0 0.14,0.13 1.8,1.8 0 0 1 -0.2,-0.19 0.34,0.34 0 0 1 -0.09,-0.08 v 0 0 h -0.05 v 0 0 0 0 l -0.08,-0.07 h 0.06 l -0.07,-0.06 -0.1,-0.09 -0.11,-0.1 h -0.06 v 0 0 c -3.25,-2.92 -6.62,-5.7 -10,-8.48 l 0.09,0.08 v 0 0 l 0.06,0.05 0.08,0.07 -0.08,-0.07 h -0.05 l 0.05,0.05 -0.08,-0.07 v 0 c -1.24,-1 -2.49,-2.06 -3.74,-3.07 a 51.23,51.23 0 0 0 -5.8,-2.33 c -0.18,-0.08 -3.14,-1 -3,-0.42 0,0 0,-0.07 0.06,-0.09 0.34,-0.07 0.69,0.21 1,0.32 6.09,3.29 11.68,8 16.94,12.3 6.09,5.43 12.07,10.65 17.31996,16.73 a 60.07,60.07 0 0 0 -3.33,-6.01 z"
     id="path108" />
  <path
     class="cls-1"
     d="m 990.94564,233.34049 v 0 0 0 -0.05 0 0 0 0 l 0.08,0.08 z"
     id="path110" />
  <path
     class="cls-1"
     d="m 990.51564,232.95049 v 0 0 l 0.07,0.06 z"
     id="path112" />
  <path
     class="cls-1"
     d="m 972.68564,220.27049 c -1.62,-2.3 -4.68,-3.93 -7.38,-3.09 2.68,0.09 5.28,1.58 7.38,3.09 z"
     id="path114" />
  <path
     class="cls-1"
     d="m 974.65564,220.69049 c -1.39,-1.95 -3.8,-4.8 -6.26,-4.3 v 0 c 0,0 0,0 0,0 v 0 c 2.53,0.56 4.22,3.04 6.26,4.3 z"
     id="path116" />
  <path
     class="cls-1"
     d="m 976.78564,223.02049 a 16.84,16.84 0 0 0 -3.44,-4.6 c -1.37,-1.38 -3,-3.11 -5.18,-2.63 -0.28,0.05 -0.92,0.07 -1.07,0.36 0,0.12 0.06,0 0.11,0 2,-0.39 3.56,1 4.78,2.43 1.59,1.47 3.3,2.85 4.8,4.44 z"
     id="path118" />
  <path
     class="cls-1"
     d="m 978.36564,224.51049 c -2.11,-3.84 -7.43,-11.38 -12.32,-8.84 1.93,-0.51 3.83,0.71 5.2,2 2.38,2.21 4.87,4.55 7.12,6.84 z"
     id="path120" />
  <path
     class="cls-1"
     d="m 1166.9856,810.94049 c 20.75,20.06 14.48,54.39 -7.58,70.82 -54,42.05 -125.41,52.84 -191.10996,64.81 -87.2,13.29 -175.7,17 -263.81,14.44 -80.61,-4.11 -201,-10.91 -289.32,-44.63 -46.21,-16.54 -86.82,-40.61 -85.27,-74.06 v -0.06 c 0.39,-18 12.1,-35.61 30.8,-47.13 19.68,-14.08 43.44,-22.68 66.07,-30.55 a 18.48,18.48 0 0 1 8.4,-2.06 c 149.75,-48.86 369.43,-44.21 505.78,-27.94 69.32996,10.65 175.83996,25.17 226.03996,76.36 z"
     id="path122" />
  <path
     class="cls-1"
     d="m 243.91564,1434.1605 c -114.78,-9.21 -199,-112.44 -228.15,-217.63 -42,-132.91 -4.08,-321.28001 162.23,-329.62001 56.07,-4.62 105.84,15.37 150.85,47.2 18.79,12 1.3,40.44 -17.85,29.08 -12.65,-8.72 -26.88,-14.18 -40.79,-20.46 -45.16,-23.2 -99.88,-27.25 -146.78,-6.67 -97.16,49.55 -99.09,182.13001 -69.52,273.77001 24.75,76.35 77.38,148.3 154.44,177.25 42.46,17.31 88.3,8 129.76,-7.26 21.89,-3.11 27.11,16.9 10.27,29 -31.81,16.98 -68.21,27.17 -104.46,25.34 z"
     id="path124" />
  <path
     class="cls-1"
     d="m 725.15564,1610.4305 c -112.52,-2.91 -225.12,-44.72 -306.32,-123.8 -28.68,-28.43 -55.12,-61.14 -68.89,-99.5 -0.9,-4.62 1.08,-9.79 5.43,-11.85 9.43,-3.7 15.34,6.64 20.82,12.4 18.92,21.35 38.27,42.33 59.21,61.72 136.41,128.23 350.6,155.93 517.55,73.37 86.47996,-40.81 157.22996,-114.39 194.86996,-202 4.82,-12.17 24.26,-4.29 18.89,8 -15.58,45.32 -37.09,89.58 -69.73,125.1 -91.03,106.76 -232.49996,162.81 -371.82996,156.56 z"
     id="path126" />
  <path
     class="cls-1"
     d="m 347.94564,1395.8705 c -10.95,-11.11 4.41,-27.37 16.11,-17.15 10.95,11.1 -4.41,27.36 -16.11,17.15 z"
     id="path128" />
  <path
     class="cls-1"
     d="m 338.98564,1387.4305 a 11.75,11.75 0 1 1 11.58,11.92 11.87,11.87 0 0 1 -11.58,-11.92 z"
     id="path130" />
  <path
     class="cls-1"
     d="m 331.78564,1402.4305 c -4.32,-4.58 -4.29,-12.32 0.46,-16.62 a 72.3,72.3 0 0 1 13.92,-9.51 c 17.53,-11.58 29.74,13.91 12,20.16 a 58.65,58.65 0 0 0 -9.77,6.43 11.89,11.89 0 0 1 -16.61,-0.46 z"
     id="path132" />
  <path
     class="cls-1"
     d="m 340.04564,1403.2905 c -10.14,-1.19 -13.72,-15.37 -5.21,-21.14 3.52,-2.44 7.69,-3.54 11.5,-5.44 4.44,-2 9.44,-4.12 14.13,-1.53 10.72,5 8.52,20.7 -3.19,22.41 -3,1.14 -5.85,2.79 -8.93,3.78 a 12,12 0 0 1 -8.3,1.92 z"
     id="path134" />
  <path
     class="cls-1"
     d="m 328.78564,1402.6405 c -4.3,-4.56 -4.31,-12.35 0.46,-16.62 4,-4.11 9.13,-6.56 14.17,-9.1 4.34,-1.79 8.41,-5.08 13.34,-4.78 13.89,0.57 15.77,19.71 2.52,23.24 -4.12,2.24 -8.74,3.75 -12.53,6.53 -4.79,5.12 -12.96,6.09 -17.96,0.73 z"
     id="path136" />
  <path
     class="cls-1"
     d="m 340.31564,1390.2505 c -4.79,-0.26 -5.52,-6.41 -1.52,-8.44 1.35,-0.82 3,-1.08 4.41,-1.73 2,-0.7 4.36,-0.5 6,-2 a 14,14 0 0 1 3.61,-3 c 5.07,-3.42 19.86,3.49 13.18,9.81 -3.91,2.8 -5.75,-1.85 -9.28,-2.26 -1.67,1.42 -3.15,3.18 -5.25,4 a 28.77,28.77 0 0 1 -5.34,1.41 c -0.91,0.32 -1.82,0.67 -2.75,1 a 4.32,4.32 0 0 1 -3.06,1.21 z"
     id="path138" />
  <path
     class="cls-1"
     d="m 365.34564,1386.9905 c -3.39,-0.11 -4.85,-4.16 -7.19,-5.81 -4,-0.76 -4.47,-6.76 -0.63,-8.13 4.46,-1.57 7.89,3.44 10.36,6.1 3.25,2.49 1.65,7.9 -2.54,7.84 z"
     id="path140" />
  <path
     class="cls-1"
     d="m 363.83564,1386.9305 c -1.36,-1.85 -2.56,-3.89 -4.39,-5.33 a 5.54,5.54 0 0 1 -2.31,-1.39 c -3.46,-3.73 1.37,-9.4 5.56,-6.43 3.58,1.58 5.79,5.08 8,8.15 3.18,4.57 -3.44,9.43 -6.86,5 z"
     id="path142" />
  <path
     class="cls-1"
     d="m 1313.4056,872.43049 a 0.67,0.67 0 0 1 -0.26,-0.24 c -0.08,-0.13 0.15,-0.25 0.2,-0.1 0.05,0.15 0.12,0.26 0.06,0.34 z"
     id="path144" />
  <path
     class="cls-1"
     d="m 1199.4856,971.43049 c -11.36,-3 -16.19,-17.75 -8.61,-26.77 3.15,-4 8.23,-6 12.8,-8.11 13.82,-6.73 26.28,-15.84 38,-25.74 12.52,-11.32 25.86,-21.27 37.33,-33.55 a 206.49,206.49 0 0 0 14.55,-17.89 c 3.23,-4.85 6.06,-10.65 11.52,-13.23 v 0 c 5.74,6 3.44,14.4 1.68,21.54 -6.3,23.72 -20.84,44.35 -36.9,62.54 -17.84,20.05 -41.31,44.21 -70.37,41.21 z"
     id="path146" />
  <path
     class="cls-1"
     d="m 1331.6756,990.53049 a 0.08,0.08 0 0 1 0.09,0 c 0,0 0,0.11 -0.06,0.11 -0.06,0 -0.07,-0.08 -0.03,-0.11 z"
     id="path148" />
  <path
     class="cls-1"
     d="m 1179.8456,1311.3005 c -13.4,-1.86 -18.71,-16.75 -12.64,-28 3.55,-8.14 10.83,-13.67 17.17,-19.57 7.07,-6.39 14.2,-12.68 21,-19.38 a 367.79,367.79 0 0 0 50.56,-60.22 306.75,306.75 0 0 0 44.33,-98.56 413.58,413.58 0 0 0 15.33,-81 c 2.44,-34.00001 -0.73,-68.08001 -7.47,-101.42001 -1.85,-8.6 -4.3,-17.05 -6.58,-25.56 -1.67,-9.31 -8.59,-19.85 -2.36,-28.67 14.26,-14.31 25.76,14.45 31.13,24.46 51.91,121.59 1.85,295.17001 -84.63,390.27001 a 437.47,437.47 0 0 1 -34.47,33.34 c -8.61,7.8 -18.95,16.14 -31.37,14.31 z"
     id="path150" />
</svg>
